<?xml version="1.0" encoding="UTF-8"?>
<svg version="1.1" xmlns="http://www.w3.org/2000/svg" width="1080" height="361">
<path d="M0 0 C356.4 0 712.8 0 1080 0 C1080 119.13 1080 238.26 1080 361 C723.6 361 367.2 361 0 361 C0 241.87 0 122.74 0 0 Z " fill="transparent" transform="translate(0,0)"/>
<path d="M0 0 C19.14 0 38.28 0 58 0 C58 0.66 58 1.32 58 2 C57.43410156 2.20496094 56.86820313 2.40992187 56.28515625 2.62109375 C55.18494141 3.02521484 55.18494141 3.02521484 54.0625 3.4375 C53.33160156 3.70433594 52.60070312 3.97117187 51.84765625 4.24609375 C50.01694322 4.85386948 50.01694322 4.85386948 49 6 C48.35696706 13.12282638 50.28669885 18.42304334 52.875 25 C53.5449964 26.75453194 54.21492706 28.50908934 54.8835907 30.26412964 C55.65670705 32.28856742 56.43553784 34.31075709 57.21435547 36.33300781 C59.26967823 41.68669719 61.2777011 47.05790259 63.28515625 52.4296875 C63.66225235 53.43849976 64.03934845 54.44731201 64.4278717 55.48669434 C65.20483859 57.56537207 65.98175966 59.64406692 66.75863647 61.72277832 C71.33454115 73.95851691 75.92121689 86.19029641 80.5703125 98.3984375 C80.83298416 99.08851898 81.09565582 99.77860046 81.36628723 100.48959351 C82.545826 103.58675867 83.72850579 106.68263931 84.91577148 109.77685547 C85.31610596 110.82502441 85.71644043 111.87319336 86.12890625 112.953125 C86.46994385 113.84161133 86.81098145 114.73009766 87.16235352 115.64550781 C87.91171796 117.75185309 88.50468761 119.82176196 89 122 C92.39250698 113.31395441 95.75894151 104.61813481 99.10742188 95.91503906 C100.4198329 92.5039776 101.73698343 89.09478776 103.05664062 85.68652344 C104.81262528 81.14760524 106.55424744 76.60337595 108.287323 72.05566406 C108.96981109 70.27107341 109.6567535 68.48817977 110.34817505 66.70703125 C111.32351429 64.19189138 112.28265416 61.67112106 113.23828125 59.1484375 C113.68110443 58.02216446 113.68110443 58.02216446 114.13287354 56.87313843 C116.81965582 49.68164382 114.93559578 45.44409511 112.26953125 38.57421875 C111.86017586 37.51458672 111.86017586 37.51458672 111.44255066 36.43354797 C110.86403439 34.94249624 110.28311713 33.45237411 109.69995117 31.96313477 C108.82114875 29.70967744 107.96024976 27.44989761 107.09960938 25.18945312 C102.39292519 11.86571807 102.39292519 11.86571807 92.125 3 C91.09375 2.67 90.0625 2.34 89 2 C89 1.34 89 0.68 89 0 C107.81 0 126.62 0 146 0 C146 0.66 146 1.32 146 2 C145.16855469 2.29003906 145.16855469 2.29003906 144.3203125 2.5859375 C143.59585938 2.84632812 142.87140625 3.10671875 142.125 3.375 C141.40570312 3.63023438 140.68640625 3.88546875 139.9453125 4.1484375 C137.81842006 4.93877783 137.81842006 4.93877783 136 7 C136.22233307 13.9793251 139.14127499 20.40896051 141.5625 26.875 C142.04857226 28.18597917 142.53448881 29.49701608 143.02026367 30.80810547 C148.79477521 46.326178 154.86654948 61.73156957 160.91859436 77.14289856 C164.63435063 86.60756701 168.31789244 96.08470216 172 105.5625 C172.61169609 107.1362456 173.22342989 108.70997655 173.83520508 110.28369141 C175.22376524 113.85567962 176.61199602 117.42779563 178 121 C181.04038096 113.62614197 183.74509887 106.16728233 186.3359375 98.625 C186.93869003 96.87908569 186.93869003 96.87908569 187.55361938 95.09790039 C188.40017708 92.64427654 189.24556571 90.19024905 190.08984375 87.73583984 C191.36198434 84.03783542 192.63769202 80.34107757 193.9140625 76.64453125 C202.67365655 51.28951825 202.67365655 51.28951825 210.875 25.75 C211.33519531 24.30173828 211.33519531 24.30173828 211.8046875 22.82421875 C213.62731483 16.90881665 215.02024951 12.06074853 213 6 C210.54103555 5.00367744 210.54103555 5.00367744 207.625 4.375 C206.64789062 4.13523437 205.67078125 3.89546875 204.6640625 3.6484375 C203.78492188 3.43445313 202.90578125 3.22046875 202 3 C201.01 2.67 200.02 2.34 199 2 C199 1.34 199 0.68 199 0 C214.51 0 230.02 0 246 0 C246 0.66 246 1.32 246 2 C244.783125 2.391875 243.56625 2.78375 242.3125 3.1875 C236.05395354 5.54963217 232.14842247 10.20718613 229 16 C227.28407932 20.15294328 225.82901052 24.3887371 224.3671875 28.63671875 C223.70420463 30.52829015 223.04121292 32.41985852 222.37764549 34.31122494 C221.69431571 36.26267807 221.01467972 38.21538539 220.33581543 40.168396 C218.29768205 46.02506431 216.21240307 51.86498719 214.1328125 57.70703125 C213.31117388 60.02149945 212.48972463 62.33603488 211.66845703 64.65063477 C203.56226064 87.48192613 195.39668987 110.29058907 187.125 133.0625 C186.50676361 134.76740097 186.50676361 134.76740097 185.8760376 136.50674438 C183.61415252 142.74109849 181.33620907 148.96909101 179.03430176 155.18878174 C178.01539062 157.95816851 177.01649668 160.73423156 176.01855469 163.51123047 C175.40656886 165.17320903 174.79367086 166.8348521 174.1796875 168.49609375 C173.78162399 169.62809959 173.78162399 169.62809959 173.3755188 170.78297424 C172.60107422 172.84155273 172.60107422 172.84155273 171 176 C168.80126953 176.96899414 168.80126953 176.96899414 167 177 C162.95636091 167.43185542 159.117207 157.7899398 155.3125 148.125 C154.66613239 146.48558175 154.01972845 144.84617783 153.37329102 143.20678711 C147.27509124 127.73228308 141.21669047 112.24215084 135.16723633 96.74853516 C131.15650493 86.4806173 127.11704255 76.22581946 123 66 C119.93022082 72.6294735 117.31618166 79.36371995 114.83984375 86.234375 C114.45335663 87.29794724 114.06686951 88.36151947 113.66867065 89.45732117 C112.84648328 91.72025706 112.0256115 93.98367131 111.20596313 96.24752808 C109.07460093 102.13263114 106.9321471 108.01368861 104.7890625 113.89453125 C104.37028336 115.04401749 103.95150421 116.19350372 103.52003479 117.37782288 C99.17328378 129.29334433 94.70009225 141.15684631 90.15234375 152.99707031 C88.56244816 157.14023044 86.9849246 161.28806682 85.40698242 165.43579102 C83.94009092 169.29133028 82.47011439 173.14568864 81 177 C79.68 177 78.36 177 77 177 C76.57404541 175.87247314 76.14809082 174.74494629 75.70922852 173.58325195 C75.42308182 172.82580688 75.13693512 172.06836182 74.84211731 171.28796387 C74.18666543 169.55293991 73.53121928 167.81791378 72.8757782 166.08288574 C70.99967399 161.11664943 69.12346115 156.1504542 67.24707031 151.18432617 C63.34357597 140.85285237 59.44139702 130.52088656 55.54296875 120.1875 C45.24114901 92.86999589 45.24114901 92.86999589 34.8269043 65.59521484 C34.30775701 64.24447496 33.7886328 62.89372621 33.26953125 61.54296875 C32.88159645 60.53375366 32.88159645 60.53375366 32.48582458 59.50415039 C30.66512771 54.75835453 28.87049343 50.00317199 27.08551025 45.24383545 C25.7456343 41.67576575 24.39680679 38.11111263 23.04693604 34.54681396 C22.39993968 32.83190657 21.75687351 31.11551031 21.11810303 29.39752197 C16.27513915 14.64544086 16.27513915 14.64544086 6.4453125 3.24609375 C5.67960937 2.97925781 4.91390625 2.71242188 4.125 2.4375 C3.34382813 2.14746094 2.56265625 1.85742188 1.7578125 1.55859375 C1.17773438 1.37425781 0.59765625 1.18992187 0 1 C0 0.67 0 0.34 0 0 Z " fill="#FCFCFC" transform="translate(480,105)"/>
<path d="M0 0 C1.17687881 -0.00401825 1.17687881 -0.00401825 2.37753296 -0.00811768 C16.79632934 0.00248801 30.01168847 1.93660288 43.75 6.5 C44.48395996 6.74024902 45.21791992 6.98049805 45.97412109 7.22802734 C67.08871184 14.3775401 85.42503428 26.70934233 101.31738281 42.11425781 C102.6026861 43.35750618 103.90573077 44.58235104 105.2109375 45.8046875 C120.95687016 60.88763352 132.36577813 80.51807504 140.75 100.5 C141.02682617 101.15726074 141.30365234 101.81452148 141.58886719 102.49169922 C152.32314427 128.65407176 155.93587867 158.95413176 148.75 186.5 C148.42 186.5 148.09 186.5 147.75 186.5 C147.75666183 185.94893082 147.76332367 185.39786163 147.77018738 184.83009338 C147.83745144 179.00454652 147.88217056 173.17911289 147.91479492 167.35327148 C147.92972196 165.18981432 147.95007093 163.02638655 147.97631836 160.86303711 C148.17620846 143.94292804 147.23684768 128.25005053 141.6875 112.125 C141.39222412 111.25560791 141.09694824 110.38621582 140.79272461 109.49047852 C135.84187646 95.53234603 128.46290565 82.45117243 119.75 70.5 C119.17378906 69.70078125 118.59757812 68.9015625 118.00390625 68.078125 C93.37956407 35.66931336 56.1099687 15.38073581 16.21875 9.1015625 C13.38957028 8.77029779 10.59722498 8.61348845 7.75 8.5 C7.00282715 8.46745117 6.2556543 8.43490234 5.48583984 8.40136719 C-31.94649068 6.97468741 -67.34423703 19.93787109 -95.16064453 45.23779297 C-103.07862623 52.68827786 -110.34128679 60.32767681 -116.25 69.5 C-116.90097656 70.49128906 -117.55195313 71.48257813 -118.22265625 72.50390625 C-140.95809956 108.2059993 -148.83593547 149.25595191 -139.74609375 190.80322266 C-133.04787809 218.55740327 -118.97503591 243.07049852 -99.25 263.5 C-98.70923828 264.06412598 -98.16847656 264.62825195 -97.61132812 265.20947266 C-82.07301233 281.12624127 -62.19082649 292.4356248 -41.25 299.5 C-39.39500555 300.22705823 -37.54075652 300.9560232 -35.6875 301.6875 C-21.12260861 306.95985887 -5.70731826 307.76004728 9.625 307.8125 C10.35721771 307.81511841 11.08943542 307.81773682 11.84384155 307.82043457 C27.27194163 307.82633821 41.05099024 305.65771822 55.5 300.13671875 C57.75 299.5 57.75 299.5 60.75 300.5 C51.51641828 304.12078268 42.45973785 307.36442716 32.75 309.5 C31.97398437 309.69335938 31.19796875 309.88671875 30.3984375 310.0859375 C-5.03263192 318.72460814 -43.45428869 309.35931418 -74.48828125 291.65234375 C-77.13613747 290.00820106 -79.69884223 288.2898599 -82.25 286.5 C-83.12398438 285.90960938 -83.99796875 285.31921875 -84.8984375 284.7109375 C-119.69915288 260.4800669 -141.68711415 222.86363985 -149.25 181.5 C-150.60663466 173.53587135 -150.47030392 165.42924999 -150.49023438 157.37402344 C-150.49986495 155.032831 -150.53093173 152.69254719 -150.5625 150.3515625 C-150.85073787 108.95537309 -132.38306272 72.79691268 -104.25 43.5 C-103.71866455 42.9445752 -103.1873291 42.38915039 -102.63989258 41.81689453 C-75.67063832 14.15709918 -38.19773436 0.07768381 0 0 Z " fill="#1F6CC9" transform="translate(299.25,27.5)"/>
<path d="M0 0 C10.5345103 9.34937789 12.11671801 20.02124034 13.1875 33.94140625 C-7.9325 33.94140625 -29.0525 33.94140625 -50.8125 33.94140625 C-48.69095093 56.73555266 -48.69095093 56.73555266 -36.625 75.19140625 C-28.53025168 81.56275654 -19.9292864 83.09928122 -9.8125 81.94140625 C-2.04876304 80.30831422 4.00814354 77.88489142 10.1875 72.94140625 C10.8475 72.94140625 11.5075 72.94140625 12.1875 72.94140625 C11.13361905 79.32243884 5.75060232 84.00761848 0.78515625 87.75390625 C-10.7443092 95.03950843 -23.10550875 96.80489589 -36.4140625 94.25 C-47.56536732 91.12920158 -56.06939551 85.4215078 -62.8125 75.94140625 C-67.56238853 66.97722493 -69.19378904 57.30103744 -69.125 47.25390625 C-69.11936035 46.3825 -69.1137207 45.51109375 -69.10791016 44.61328125 C-68.80865814 28.51885573 -64.34225634 14.8610433 -53.0390625 3.06640625 C-38.5864791 -10.72693651 -16.06099743 -12.32887463 0 0 Z " fill="#FAFAFB" transform="translate(915.8125,186.05859375)"/>
<path d="M0 0 C5.02090797 1.36429095 9.43260977 0.93188662 14.47265625 -0.328125 C14.47265625 8.251875 14.47265625 16.831875 14.47265625 25.671875 C13.48265625 25.671875 12.49265625 25.671875 11.47265625 25.671875 C11.34890625 25.12660156 11.22515625 24.58132812 11.09765625 24.01953125 C9.21856374 17.14909927 5.98376038 12.21899062 0.47265625 7.671875 C-6.03269869 4.05994659 -13.14191136 2.46134883 -20.52734375 3.671875 C-24.6156195 4.97205794 -27.58480061 6.67042291 -30.52734375 9.796875 C-32.43643928 15.28552465 -32.42980853 20.48017481 -30.21484375 25.859375 C-22.85726505 33.55916667 -12.81805921 37.60776657 -3.22875977 41.85644531 C6.64982861 46.35266457 14.93511416 52.32869608 20.28515625 61.921875 C23.1022781 70.81804926 21.37000609 78.35123539 17.47265625 86.671875 C12.4221234 94.68306504 5.42338715 97.41469006 -3.42114258 99.48657227 C-13.47146909 101.63699816 -21.74565241 100.67628893 -31.60327148 98.09570312 C-38.28443032 96.28682783 -38.28443032 96.28682783 -44.83984375 97.671875 C-45.67515625 98.166875 -45.67515625 98.166875 -46.52734375 98.671875 C-47.52734375 97.671875 -47.52734375 97.671875 -47.64086914 94.98803711 C-47.63563232 93.82022705 -47.63039551 92.65241699 -47.625 91.44921875 C-47.62177734 90.18916016 -47.61855469 88.92910156 -47.61523438 87.63085938 C-47.60687778 86.29036391 -47.59841282 84.94986912 -47.58984375 83.609375 C-47.58483035 82.26497558 -47.58026717 80.9205744 -47.57617188 79.57617188 C-47.56433863 76.27469559 -47.54785346 72.97330697 -47.52734375 69.671875 C-44.52734375 70.671875 -44.52734375 70.671875 -43.16796875 73.1484375 C-42.7090625 74.18742187 -42.25015625 75.22640625 -41.77734375 76.296875 C-37.57556326 85.01091237 -32.49997799 90.04380985 -23.52734375 93.671875 C-17.17092575 95.790681 -9.15119547 95.84070765 -2.96484375 93.109375 C0.90809174 90.75941203 3.15382214 88.01578485 4.47265625 83.671875 C5.24063235 78.6240321 5.08467461 74.89591171 2.78515625 70.296875 C-1.13445429 65.84758736 -5.23340093 63.14035224 -10.60546875 60.68359375 C-11.76691406 60.14154297 -12.92835938 59.59949219 -14.125 59.04101562 C-16.54150218 57.92543276 -18.9617105 56.81851846 -21.3828125 55.71289062 C-30.04019339 51.66161902 -38.88315046 47.35595935 -44.02734375 38.921875 C-44.49140625 38.18453125 -44.95546875 37.4471875 -45.43359375 36.6875 C-48.62399174 30.80805228 -48.55784458 23.41864159 -46.80859375 17.05859375 C-44.84215782 12.34073335 -42.4529642 9.02301441 -38.52734375 5.671875 C-37.82609375 4.99125 -37.12484375 4.310625 -36.40234375 3.609375 C-25.15350273 -3.97136569 -12.6120566 -3.93778498 0 0 Z " fill="#F9F9F9" transform="translate(815.52734375,180.328125)"/>
<path d="M0 0 C1.99978775 1.99978775 1.15403906 6.03305851 1.15771484 8.7734375 C1.16279556 9.58818039 1.16787628 10.40292328 1.17311096 11.24235535 C1.18384129 13.01899121 1.19245094 14.79564081 1.19923019 16.57229614 C1.21099738 19.38933404 1.23044829 22.2062171 1.25234985 25.02319336 C1.31401239 33.0354288 1.36787497 41.04765214 1.40136719 49.06005859 C1.42238887 53.95670807 1.457762 58.8530816 1.50212479 63.74957275 C1.51623682 65.61212906 1.52499633 67.47473426 1.52817917 69.33734131 C1.53312335 71.95565321 1.55637385 74.57324273 1.58349609 77.19140625 C1.58048996 77.9522905 1.57748383 78.71317474 1.5743866 79.49711609 C1.65781697 84.95834013 2.60900445 90.04426811 5 95 C7.17900527 96.47680425 7.17900527 96.47680425 9.6875 96.5625 C10.49574219 96.66691406 11.30398438 96.77132812 12.13671875 96.87890625 C12.75160156 96.91886719 13.36648438 96.95882812 14 97 C14 97.66 14 98.32 14 99 C-0.85 99 -15.7 99 -31 99 C-31 98.34 -31 97.68 -31 97 C-30.07767578 96.83564453 -30.07767578 96.83564453 -29.13671875 96.66796875 C-28.32847656 96.50941406 -27.52023437 96.35085938 -26.6875 96.1875 C-25.88699219 96.03667969 -25.08648438 95.88585937 -24.26171875 95.73046875 C-21.68554041 94.89843879 -20.62692324 94.14753867 -19 92 C-17.75034806 88.3463711 -17.85257264 84.74131296 -17.82299805 80.90820312 C-17.81642685 80.20203354 -17.80985565 79.49586395 -17.80308533 78.76829529 C-17.78342705 76.43927902 -17.77170985 74.11032683 -17.76171875 71.78125 C-17.75764322 70.98453384 -17.7535677 70.18781769 -17.74936867 69.36695862 C-17.72854524 65.15430971 -17.7142244 60.94169308 -17.70483398 56.72900391 C-17.6937445 52.37755036 -17.65930533 48.02660464 -17.61966228 43.67533112 C-17.59354186 40.32789143 -17.58514653 36.98057402 -17.58155251 33.63304138 C-17.57667893 32.02864633 -17.56504294 30.42425701 -17.54651451 28.81996155 C-17.52220679 26.57682626 -17.52307125 24.3350231 -17.5300293 22.09179688 C-17.52416306 20.81590698 -17.51829681 19.54001709 -17.51225281 18.22546387 C-18.08523499 14.43634246 -18.98865303 13.28688038 -22 11 C-24.3307294 10.11030411 -24.3307294 10.11030411 -26.75 9.75 C-27.54921875 9.60046875 -28.3484375 9.4509375 -29.171875 9.296875 C-29.77515625 9.19890625 -30.3784375 9.1009375 -31 9 C-31 8.34 -31 7.68 -31 7 C-7.71228059 -0.39948504 -7.71228059 -0.39948504 0 0 Z " fill="#F9F9F9" transform="translate(743,179)"/>
<path d="M0 0 C0.66 0.33 1.32 0.66 2 1 C2 4.3 2 7.6 2 11 C1.34 11 0.68 11 0 11 C0.33773437 11.56074219 0.67546875 12.12148437 1.0234375 12.69921875 C2.19268155 15.45395773 2.02320854 16.8613323 1.625 19.8125 C-2.29178501 59.12364713 6.95413155 100.53480675 31.57421875 132.0859375 C35.85999995 137.23439607 40.34675798 142.18057077 45 147 C45.54076172 147.56412598 46.08152344 148.12825195 46.63867188 148.70947266 C62.17698767 164.62624127 82.05917351 175.9356248 103 183 C104.85499445 183.72705823 106.70924348 184.4560232 108.5625 185.1875 C123.12739139 190.45985887 138.54268174 191.26004728 153.875 191.3125 C154.60721771 191.31511841 155.33943542 191.31773682 156.09384155 191.32043457 C171.52194163 191.32633821 185.30099024 189.15771822 199.75 183.63671875 C202 183 202 183 205 184 C195.76641828 187.62078268 186.70973785 190.86442716 177 193 C176.22398437 193.19335938 175.44796875 193.38671875 174.6484375 193.5859375 C139.21736808 202.22460814 100.79571131 192.85931418 69.76171875 175.15234375 C67.11386253 173.50820106 64.55115777 171.7898599 62 170 C61.12601562 169.40960938 60.25203125 168.81921875 59.3515625 168.2109375 C24.54633102 143.97692246 2.57075857 106.36518695 -5 65 C-6.38369131 56.96489764 -6.18613207 48.78182763 -6.18530273 40.65429688 C-6.18748232 38.26934768 -6.20567014 35.88486735 -6.22460938 33.5 C-6.25793963 24.62100554 -6.26000927 15.65235518 -4 7 C-3.34 6.34 -2.68 5.68 -2 5 C-1.29289322 3.35008418 -0.62056011 1.68437744 0 0 Z " fill="#1F5FB1" transform="translate(155,144)"/>
<path d="M0 0 C6.86478215 5.92867549 10.27476312 13.1191545 10.96484375 22.203125 C10.99592431 24.62050168 11.00258685 26.97056749 10.75 29.375 C9.75 30.375 9.75 30.375 5.78100586 30.48852539 C4.00894393 30.4883662 2.2368774 30.48266785 0.46484375 30.47265625 C-0.46597519 30.4712413 -1.39679413 30.46982635 -2.3558197 30.46836853 C-5.34141191 30.46275172 -8.32693029 30.4501964 -11.3125 30.4375 C-13.33137913 30.43248716 -15.35025943 30.42792388 -17.36914062 30.42382812 C-22.32945572 30.41277683 -27.28971532 30.39550095 -32.25 30.375 C-32.26801086 28.93762764 -32.28084654 27.50018983 -32.29150391 26.06274414 C-32.29920807 25.26228165 -32.30691223 24.46181915 -32.31484985 23.63710022 C-32.09310992 15.90234185 -27.81051972 7.64975425 -22.25 2.375 C-14.76591282 -2.96713378 -8.27903616 -4.13951808 0 0 Z " fill="#091225" transform="translate(898.25,185.625)"/>
<path d="M0 0 C0.99 0.495 0.99 0.495 2 1 C-12.61129932 12.50845596 -27.4426025 23.40664557 -42.96240234 33.65087891 C-45.13186129 35.08730715 -47.29506288 36.53279275 -49.45703125 37.98046875 C-57.68101514 43.48584528 -65.93629799 48.93124995 -74.27734375 54.2578125 C-78.31580451 56.38092072 -78.31580451 56.38092072 -80.51953125 59.98828125 C-80.61621094 60.75527344 -80.71289062 61.52226562 -80.8125 62.3125 C-81.47763489 65.72062918 -82.15050889 67.71283012 -84.75 70.0625 C-88.36153807 72.21553231 -89.89534674 72.87333048 -94 72 C-97.74082395 69.30312692 -99.06059201 67.11099156 -100 62.75 C-101.9428429 56.28097364 -107.58878242 53.55962144 -113.03320312 50.2109375 C-116.51380046 48.06796794 -119.9409028 45.84144015 -123.375 43.625 C-124.09574707 43.16150146 -124.81649414 42.69800293 -125.55908203 42.22045898 C-165.92221289 16.11668066 -165.92221289 16.11668066 -176 1 C-158.92394634 9.18391512 -143.42204067 22.37677528 -128.60888672 34.01245117 C-121.69579594 39.43135594 -114.73645661 44.780749 -107.625 49.9375 C-106.91770752 50.46384033 -106.21041504 50.99018066 -105.48168945 51.5324707 C-104.48915161 52.24149536 -104.48915161 52.24149536 -103.4765625 52.96484375 C-102.89986816 53.3837085 -102.32317383 53.80257324 -101.72900391 54.23413086 C-99.43893377 55.24852651 -98.31533652 54.83706497 -96 54 C-95.34 53.67 -94.68 53.34 -94 53 C-87.52941176 52.64705882 -87.52941176 52.64705882 -84 55 C-80.56560945 54.67396671 -78.59133376 53.09962117 -75.984375 50.94140625 C-70.6063705 46.63131978 -64.96311005 42.78712732 -59.25 38.9375 C-58.14191264 38.18845553 -57.0339228 37.43926679 -55.92602539 36.68994141 C-53.68479291 35.17529742 -51.44196883 33.66305327 -49.19775391 32.15283203 C-46.31008939 30.20876227 -43.42629164 28.25909258 -40.54296875 26.30859375 C-30.01710655 19.21559797 -19.34543968 12.38847229 -8.55249023 5.70849609 C-7.09564819 4.80671631 -7.09564819 4.80671631 -5.609375 3.88671875 C-4.74280273 3.35264404 -3.87623047 2.81856934 -2.98339844 2.26831055 C-1.07887708 1.15047016 -1.07887708 1.15047016 0 0 Z " fill="#1C67B8" transform="translate(391,118)"/>
<path d="M0 0 C2.97 0 5.94 0 9 0 C11.97 6.6 14.94 13.2 18 20 C19.27875 17.4425 20.5575 14.885 21.875 12.25 C23.91666667 8.16666667 25.95833333 4.08333333 28 0 C30.97 0 33.94 0 37 0 C36.34 0.66 35.68 1.32 35 2 C34.54243773 6.14856462 34.67597823 10.32912075 34.6875 14.5 C34.67138672 15.66660156 34.65527344 16.83320313 34.63867188 18.03515625 C34.63802734 19.14761719 34.63738281 20.26007813 34.63671875 21.40625 C34.63373779 22.43041016 34.63075684 23.45457031 34.62768555 24.50976562 C34.75054932 25.33154297 34.87341309 26.15332031 35 27 C35.99 27.66 36.98 28.32 38 29 C38 29.66 38 30.32 38 31 C33.71 31 29.42 31 25 31 C25 30.34 25 29.68 25 29 C25.66 28.67 26.32 28.34 27 28 C27 21.73 27 15.46 27 9 C23.7 15.93 20.4 22.86 17 30 C14.33815731 27.33815731 13.37987058 26.05838938 11.95703125 22.76953125 C11.60576172 21.96708984 11.25449219 21.16464844 10.89257812 20.33789062 C10.53615234 19.50451172 10.17972656 18.67113281 9.8125 17.8125 C9.44447266 16.96751953 9.07644531 16.12253906 8.69726562 15.25195312 C7.79186346 13.17070398 6.89508869 11.08570547 6 9 C6 15.27 6 21.54 6 28 C6.66 28.33 7.32 28.66 8 29 C8 29.66 8 30.32 8 31 C5.03 31 2.06 31 -1 31 C-1 30.34 -1 29.68 -1 29 C-0.34 28.67 0.32 28.34 1 28 C1.02891949 23.70834738 1.04677118 19.41671964 1.0625 15.125 C1.07087891 13.90167969 1.07925781 12.67835938 1.08789062 11.41796875 C1.09111328 10.25136719 1.09433594 9.08476562 1.09765625 7.8828125 C1.10551147 6.26463623 1.10551147 6.26463623 1.11352539 4.61376953 C1.17883106 2.01767814 1.17883106 2.01767814 0 0 Z " fill="#F0F0F1" transform="translate(308,203)"/>
<path d="M0 0 C16.22641562 7.77671532 31.11683238 20.21094245 45.1875 31.2890625 C46.70810265 32.48466844 48.22894125 33.67997436 49.75 34.875 C50.50893555 35.47199707 51.26787109 36.06899414 52.04980469 36.68408203 C57.86890868 41.22003054 63.85160836 45.44603627 70.04980469 49.44873047 C75.9124693 53.32027282 75.9124693 53.32027282 77 57 C77.0777346 59.33203812 77.08967728 61.66839059 77 64 C76.67 64 76.34 64 76 64 C75.78472656 62.93265625 75.56945312 61.8653125 75.34765625 60.765625 C73.74441456 56.28584242 72.39922819 55.26884596 68.4375 52.75 C67.8688623 52.3792334 67.30022461 52.0084668 66.71435547 51.62646484 C64.8214913 50.3979061 62.91191784 49.1986562 61 48 C58.20372465 46.21548622 55.41383845 44.42110965 52.625 42.625 C51.9043335 42.1616626 51.18366699 41.6983252 50.44116211 41.22094727 C10.07101495 15.10652243 10.07101495 15.10652243 0 0 Z " fill="#1C60B3" transform="translate(215,119)"/>
<path d="M0 0 C3.95403662 0.26360244 5.65370756 0.86143155 8.75 3.25 C11.22361688 6.96042531 11.29607278 9.94862675 10.75 14.25 C9.48515069 17.1591534 8.49549933 18.71015566 5.9375 20.5625 C1.88938379 21.83476509 -1.12987109 21.75914951 -5 20 C-7.47555146 18.07457109 -8.36131106 17.23922645 -9.25 14.25 C-9.82383966 9.08544304 -9.82383966 9.08544304 -9.25 6.25 C-6.8125 3.3125 -6.8125 3.3125 -4.25 1.25 C-3.25 0.25 -3.25 0.25 0 0 Z " fill="#F9FAFA" transform="translate(734.25,141.75)"/>
<path d="M0 0 C4.63852684 2.25833706 6.82396522 5.2603543 9.3125 9.625 C9.69639893 10.2845166 10.08029785 10.9440332 10.47583008 11.62353516 C29.23841184 44.46094453 39.78051582 83.50802271 30 121 C29.67 121 29.34 121 29 121 C29.00666183 120.44893082 29.01332367 119.89786163 29.02018738 119.33009338 C29.08745144 113.50454652 29.13217056 107.67911289 29.16479492 101.85327148 C29.17972196 99.68981432 29.20007093 97.52638655 29.22631836 95.36303711 C29.42620846 78.44292804 28.48684768 62.75005053 22.9375 46.625 C22.64222412 45.75560791 22.34694824 44.88621582 22.04272461 43.99047852 C17.39255309 30.88005619 10.64712962 18.69603806 2.49609375 7.4453125 C0.94189348 4.90502694 0.38368767 2.93284546 0 0 Z " fill="#1C68BA" transform="translate(418,93)"/>
<path d="M0 0 C0.33 0.99 0.66 1.98 1 3 C1.66 2.34 2.32 1.68 3 1 C3.99 1.33 4.98 1.66 6 2 C5.25556641 3.36705078 5.25556641 3.36705078 4.49609375 4.76171875 C-3.22034488 19.32680727 -8.49943516 34.89740173 -12 51 C-12.66 49.68 -13.32 48.36 -14 47 C-13.34 47 -12.68 47 -12 47 C-12.53980347 43.60694964 -13.16550811 40.33796756 -14 37 C-14.66 39.64 -15.32 42.28 -16 45 C-16.33 45 -16.66 45 -17 45 C-16.42570147 32.53772198 -12.41958653 21.48357764 -7.4375 10.1875 C-7.04949219 9.29691895 -6.66148437 8.40633789 -6.26171875 7.48876953 C-5.8853125 6.66103027 -5.50890625 5.83329102 -5.12109375 4.98046875 C-4.7852124 4.23692139 -4.44933105 3.49337402 -4.10327148 2.72729492 C-3 1 -3 1 0 0 Z " fill="#1D64BC" transform="translate(169,108)"/>
<path d="M0 0 C7.59 0 15.18 0 23 0 C23 2.31 23 4.62 23 7 C21.5 5.625 21.5 5.625 20 4 C20 3.34 20 2.68 20 2 C16.04 1.67 12.08 1.34 8 1 C8 5.29 8 9.58 8 14 C10.31 14 12.62 14 15 14 C15.33 12.68 15.66 11.36 16 10 C16.66 10 17.32 10 18 10 C18 13.3 18 16.6 18 20 C17.34 20 16.68 20 16 20 C15.67 19.01 15.34 18.02 15 17 C12.69 16.67 10.38 16.34 8 16 C8.33 19.96 8.66 23.92 9 28 C15.13225825 28.7009056 15.13225825 28.7009056 20.77734375 26.88671875 C22.29461729 25.38431777 22.29461729 25.38431777 24 23 C24.125 25.875 24.125 25.875 24 29 C22 31 22 31 19.75341797 31.22705078 C18.84221191 31.21657715 17.93100586 31.20610352 16.9921875 31.1953125 C16.00605469 31.18886719 15.01992188 31.18242187 14.00390625 31.17578125 C12.45509766 31.15064453 12.45509766 31.15064453 10.875 31.125 C9.83472656 31.11597656 8.79445313 31.10695312 7.72265625 31.09765625 C5.14820908 31.07403747 2.57421788 31.04110149 0 31 C0 30.34 0 29.68 0 29 C0.66 29 1.32 29 2 29 C1.86164197 24.54140138 1.71305421 20.08320214 1.5625 15.625 C1.52318359 14.35398438 1.48386719 13.08296875 1.44335938 11.7734375 C1.40146484 10.56171875 1.35957031 9.35 1.31640625 8.1015625 C1.27974854 6.98088379 1.24309082 5.86020508 1.20532227 4.70556641 C1.17403987 2.03287229 1.17403987 2.03287229 0 0 Z " fill="#E7E8E9" transform="translate(371,203)"/>
<path d="M0 0 C0.99 0.66 1.98 1.32 3 2 C3 2.66 3 3.32 3 4 C3.99 4 4.98 4 6 4 C6.66964286 11.76785714 6.66964286 11.76785714 3.625 15.4375 C0.80508665 18.19027256 0.00331394 18.86622481 -3.8125 19.375 C-7 19 -7 19 -9.8125 17.0625 C-13.20658825 12.31077644 -13 7.67904875 -13 2 C-12.38125 1.855625 -11.7625 1.71125 -11.125 1.5625 C-4.35609756 -0.22926829 -4.35609756 -0.22926829 0 0 Z " fill="#1466CE" transform="translate(304,171)"/>
<path d="M0 0 C9.24 0 18.48 0 28 0 C28 2.31 28 4.62 28 7 C27.29875 6.195625 26.5975 5.39125 25.875 4.5625 C22.87632907 1.43097478 22.87632907 1.43097478 17 1 C17.33 9.91 17.66 18.82 18 28 C18.66 28.33 19.32 28.66 20 29 C20 29.66 20 30.32 20 31 C16.04 31 12.08 31 8 31 C8 30.34 8 29.68 8 29 C8.66 28.67 9.32 28.34 10 28 C10.33 19.42 10.66 10.84 11 2 C8.36 2 5.72 2 3 2 C2.67 3.65 2.34 5.3 2 7 C1.34 7 0.68 7 0 7 C0 4.69 0 2.38 0 0 Z " fill="#EBEBED" transform="translate(216,203)"/>
<path d="M0 0 C4.875 2.625 4.875 2.625 6 6 C5.46632812 6.38929687 4.93265625 6.77859375 4.3828125 7.1796875 C-1.17370941 11.35188561 -5.98467614 15.89348729 -10.73828125 20.9609375 C-12.95067783 22.95553338 -14.0942749 23.64094015 -17 24 C-16.34 22.68 -15.68 21.36 -15 20 C-16.32 21.32 -17.64 22.64 -19 24 C-19.66 23.67 -20.32 23.34 -21 23 C-20.41798146 19.69019155 -19.43526832 18.06611076 -17.05078125 15.72265625 C-16.44943359 15.12646484 -15.84808594 14.53027344 -15.22851562 13.91601562 C-14.59623047 13.30435547 -13.96394531 12.69269531 -13.3125 12.0625 C-12.69955078 11.45470703 -12.08660156 10.84691406 -11.45507812 10.22070312 C-7.78346131 6.6113831 -4.00137388 3.23920742 0 0 Z " fill="#2168C1" transform="translate(208,59)"/>
<path d="M0 0 C3.63 0 7.26 0 11 0 C10.34 0.66 9.68 1.32 9 2 C8.72155068 4.71934335 8.72155068 4.71934335 8.8046875 7.8828125 C8.81113281 9.04941406 8.81757813 10.21601563 8.82421875 11.41796875 C8.84097656 12.64128906 8.85773438 13.86460937 8.875 15.125 C8.88402344 16.35605469 8.89304687 17.58710938 8.90234375 18.85546875 C8.92597452 21.90383815 8.95891946 24.95182382 9 28 C9.66 28.33 10.32 28.66 11 29 C11 29.66 11 30.32 11 31 C7.37 31 3.74 31 0 31 C0 30.34 0 29.68 0 29 C0.66 28.67 1.32 28.34 2 28 C2.05783842 23.70838953 2.0935412 19.41687855 2.125 15.125 C2.14175781 13.90167969 2.15851563 12.67835938 2.17578125 11.41796875 C2.18222656 10.25136719 2.18867188 9.08476562 2.1953125 7.8828125 C2.20578613 6.80402832 2.21625977 5.72524414 2.22705078 4.61376953 C2.26839977 1.83955978 2.26839977 1.83955978 0 0 Z " fill="#F5F5F6" transform="translate(270,203)"/>
<path d="M0 0 C-9.23358172 3.62078268 -18.29026215 6.86442716 -28 9 C-29.16402344 9.29003906 -29.16402344 9.29003906 -30.3515625 9.5859375 C-43.35877788 12.75730804 -56.70949132 12.11431561 -70 12 C-70 11.67 -70 11.34 -70 11 C-65.38 10.67 -60.76 10.34 -56 10 C-57.65 9.67 -59.3 9.34 -61 9 C-61 8.67 -61 8.34 -61 8 C-60.28158936 7.9906543 -59.56317871 7.98130859 -58.82299805 7.97167969 C-40.12277236 7.66744123 -22.83160865 6.35469137 -5.25 -0.36328125 C-3 -1 -3 -1 0 0 Z " fill="#13549A" transform="translate(360,328)"/>
<path d="M0 0 C0.33 0.66 0.66 1.32 1 2 C1.99 2.33 2.98 2.66 4 3 C-20.17589057 19.21513848 -20.17589057 19.21513848 -26 22 C-26.99 21.34 -27.98 20.68 -29 20 C-27.9171875 19.36964844 -27.9171875 19.36964844 -26.8125 18.7265625 C-24.09566973 17.05873059 -21.5607327 15.27212819 -19 13.375 C-12.75257779 8.78957961 -6.38736873 4.38687328 0 0 Z " fill="#1C5DA9" transform="translate(336,154)"/>
<path d="M0 0 C0.33 0 0.66 0 1 0 C3.99805921 16.09278878 3.12833817 34.17470366 -1 50 C-1.33 50 -1.66 50 -2 50 C-1.88232171 43.52200279 -1.75749178 37.04417172 -1.62768555 30.56640625 C-1.5843699 28.362662 -1.54269241 26.15888492 -1.50268555 23.95507812 C-1.44490156 20.78765976 -1.38123024 17.62040614 -1.31640625 14.453125 C-1.29969376 13.46757629 -1.28298126 12.48202759 -1.26576233 11.46661377 C-1.24581711 10.5459613 -1.22587189 9.62530884 -1.20532227 8.67675781 C-1.18977798 7.8684552 -1.1742337 7.06015259 -1.15821838 6.22735596 C-1.00297865 4.04193269 -0.59991191 2.10291419 0 0 Z " fill="#194B85" transform="translate(449,164)"/>
<path d="M0 0 C0.33 0 0.66 0 1 0 C2.16321292 5.58365616 2.19594478 11.06448282 2.23828125 16.7421875 C2.246353 17.78335724 2.25442474 18.82452698 2.26274109 19.89724731 C2.27654501 22.10107784 2.2872836 24.30492941 2.29516602 26.50878906 C2.30663015 28.73509098 2.32699236 30.96136664 2.35668945 33.1875 C2.53286293 46.41527407 2.17534837 58.35479405 -2 71 C-2.66 71 -3.32 71 -4 71 C-3.68991116 69.39536551 -3.37683713 67.79130769 -3.0625 66.1875 C-2.88847656 65.29417969 -2.71445312 64.40085937 -2.53515625 63.48046875 C-2 61 -2 61 -1 58 C0.62602565 46.00885045 0.11277653 33.75481508 0.0625 21.6875 C0.05747421 19.57877711 0.05291322 17.47005305 0.04882812 15.36132812 C0.03790973 10.24085629 0.02070474 5.12044124 0 0 Z " fill="#081A3C" transform="translate(446,161)"/>
<path d="M0 0 C1.16801612 3.50404837 0.59818813 5.41087121 0 9 C0.33 9.99 0.66 10.98 1 12 C0.43122375 14.77528511 -0.20088276 17.45796361 -0.9375 20.1875 C-1.13279297 20.93708984 -1.32808594 21.68667969 -1.52929688 22.45898438 C-2.01214375 24.30793459 -2.50510633 26.15423776 -3 28 C-3.66 26.68 -4.32 25.36 -5 24 C-4.34 24 -3.68 24 -3 24 C-3.53980347 20.60694964 -4.16550811 17.33796756 -5 14 C-5.66 16.64 -6.32 19.28 -7 22 C-7.33 22 -7.66 22 -8 22 C-7.64686798 12.7479411 -7.64686798 12.7479411 -5 9.6875 C-4.01 8.8521875 -4.01 8.8521875 -3 8 C-2.34444881 5.47266765 -2.34444881 5.47266765 -2 3 C-1.34 2.01 -0.68 1.02 0 0 Z " fill="#2169C2" transform="translate(160,131)"/>
<path d="M0 0 C2 1 2 1 3.21875 4.53515625 C3.65384701 6.04197993 4.08055955 7.55124334 4.5 9.0625 C4.71269531 9.80177734 4.92539062 10.54105469 5.14453125 11.30273438 C5.78001594 13.53082945 6.39354298 15.76384369 7 18 C7.19706543 18.70946777 7.39413086 19.41893555 7.59716797 20.14990234 C8.62820278 24.01194504 9.23598701 27.50446751 9.125 31.5 C9.10695313 32.3559375 9.08890625 33.211875 9.0703125 34.09375 C9.04710937 34.7228125 9.02390625 35.351875 9 36 C8.34 35.67 7.68 35.34 7 35 C6.47341599 32.49187732 6.05513071 30.03235131 5.6875 27.5 C4.24451699 18.40344292 1.77650841 9.76849888 -1 1 C-0.67 0.67 -0.34 0.34 0 0 Z " fill="#175DA5" transform="translate(440,132)"/>
<path d="M0 0 C4 4 4 4 4.45410156 6.38183594 C4.4331543 7.24067383 4.41220703 8.09951172 4.390625 8.984375 C4.37773437 9.91894531 4.36484375 10.85351562 4.3515625 11.81640625 C4.31804687 12.78449219 4.28453125 13.75257813 4.25 14.75 C4.23195313 15.73355469 4.21390625 16.71710938 4.1953125 17.73046875 C4.14824126 20.15463783 4.08250742 22.57682059 4 25 C4.66 25.33 5.32 25.66 6 26 C6 26.66 6 27.32 6 28 C3.03 28 0.06 28 -3 28 C-3 27.34 -3 26.68 -3 26 C-2.34 25.67 -1.68 25.34 -1 25 C-0.67 16.75 -0.34 8.5 0 0 Z " fill="#C6C6C7" transform="translate(310,206)"/>
<path d="M0 0 C1.32 0 2.64 0 4 0 C4 5.28 4 10.56 4 16 C2.68 16 1.36 16 0 16 C0 10.72 0 5.44 0 0 Z " fill="#1A4A87" transform="translate(300,305)"/>
<path d="M0 0 C1.32 0 2.64 0 4 0 C4 5.28 4 10.56 4 16 C2.68 16 1.36 16 0 16 C0 10.72 0 5.44 0 0 Z " fill="#1F67B0" transform="translate(300,48)"/>
<path d="M0 0 C0.721875 0.309375 1.44375 0.61875 2.1875 0.9375 C4.89860059 2.07456658 4.89860059 2.07456658 7.5 2.375 C10.80179392 3.20044848 12.57447065 4.64184646 15 7 C15.8125 9.25 15.8125 9.25 16 11 C9.02772043 9.81322901 4.85563349 6.00978058 0 1 C0 0.67 0 0.34 0 0 Z " fill="#1F67BD" transform="translate(231,133)"/>
<path d="M0 0 C1.79905924 1.07101186 3.58903096 2.15729915 5.375 3.25 C6.37273437 3.85328125 7.37046875 4.4565625 8.3984375 5.078125 C10.99800766 6.99852818 12.00831803 7.97773114 13 11 C13.0777346 13.33203812 13.08967728 15.66839059 13 18 C12.67 18 12.34 18 12 18 C11.896875 17.01 11.79375 16.02 11.6875 15 C10.08777324 9.02850085 3.89196362 6.14950835 -1 3 C-0.67 2.01 -0.34 1.02 0 0 Z " fill="#1658AA" transform="translate(279,165)"/>
<path d="M0 0 C-2.54115002 0.95972174 -5.08289457 1.91781494 -7.625 2.875 C-8.33785156 3.14441406 -9.05070312 3.41382813 -9.78515625 3.69140625 C-11.85370794 4.46948533 -13.92606491 5.23640318 -16 6 C-17.0828125 6.4021875 -18.165625 6.804375 -19.28125 7.21875 C-22.78099051 8.22442256 -25.46690614 7.70661877 -29 7 C-29 6.67 -29 6.34 -29 6 C-27.7934375 5.74605469 -26.586875 5.49210937 -25.34375 5.23046875 C-23.72909815 4.88313085 -22.11451863 4.5354566 -20.5 4.1875 C-19.31277344 3.9390332 -19.31277344 3.9390332 -18.1015625 3.68554688 C-14.11627813 2.81989084 -10.38160492 1.82442161 -6.59375 0.30078125 C-3 -1 -3 -1 0 0 Z " fill="#165EA2" transform="translate(360,328)"/>
<path d="M0 0 C4.64439825 3.56430564 7.93315626 6.98152843 11 12 C10.67 12.99 10.34 13.98 10 15 C9.67 14.34 9.34 13.68 9 13 C8.01 13 7.02 13 6 13 C4.0750353 11.17806158 2.62464469 9.10764717 1 7 C1.33 6.34 1.66 5.68 2 5 C2.33 5 2.66 5 3 5 C2.2575 4.319375 2.2575 4.319375 1.5 3.625 C0 2 0 2 0 0 Z " fill="#3376CF" transform="translate(410,81)"/>
<path d="M0 0 C4.95 0 9.9 0 15 0 C15 0.99 15 1.98 15 3 C10.38 3 5.76 3 1 3 C0.67 2.01 0.34 1.02 0 0 Z " fill="#1A5496" transform="translate(423,181)"/>
<path d="M0 0 C4.95 0 9.9 0 15 0 C15 0.99 15 1.98 15 3 C10.38 3 5.76 3 1 3 C0.67 2.01 0.34 1.02 0 0 Z " fill="#1C5DA3" transform="translate(169,181)"/>
<path d="M0 0 C-0.34485543 2.8842454 -0.78255407 3.8207818 -3.06640625 5.703125 C-3.89011719 6.21359375 -4.71382813 6.7240625 -5.5625 7.25 C-6.38878906 7.77078125 -7.21507812 8.2915625 -8.06640625 8.828125 C-8.70449219 9.21484375 -9.34257812 9.6015625 -10 10 C-11.32 9.34 -12.64 8.68 -14 8 C-13.319375 7.608125 -12.63875 7.21625 -11.9375 6.8125 C-9.0155198 5.00957605 -6.29293107 3.04945373 -3.55078125 0.98828125 C-2 0 -2 0 0 0 Z " fill="#1560B1" transform="translate(321,166)"/>
<path d="M0 0 C3.33855319 2.99318562 5.27398609 5.85756662 7 10 C7 11.32 7 12.64 7 14 C6.34 14 5.68 14 5 14 C3.45703125 11.953125 3.45703125 11.953125 1.8125 9.25 C1.26207031 8.36828125 0.71164063 7.4865625 0.14453125 6.578125 C-1 4 -1 4 -0.67578125 1.671875 C-0.45277344 1.12015625 -0.22976562 0.5684375 0 0 Z " fill="#2069B2" transform="translate(229,68)"/>
<path d="M0 0 C0.66 0 1.32 0 2 0 C2 3.3 2 6.6 2 10 C1.34 10 0.68 10 0 10 C-0.33 9.01 -0.66 8.02 -1 7 C-3.31 6.67 -5.62 6.34 -8 6 C-8 5.34 -8 4.68 -8 4 C-5.69 4 -3.38 4 -1 4 C-0.67 2.68 -0.34 1.36 0 0 Z " fill="#D7D8D9" transform="translate(387,213)"/>
<path d="M0 0 C0.33 0 0.66 0 1 0 C2.823321 6.15370839 3.2361959 11.59646678 3 18 C2.34 17.67 1.68 17.34 1 17 C0.49500309 14.49864104 0.11343185 12.08892785 -0.1875 9.5625 C-0.28224609 8.86833984 -0.37699219 8.17417969 -0.47460938 7.45898438 C-1.13312621 2.26625241 -1.13312621 2.26625241 0 0 Z " fill="#1059A3" transform="translate(446,150)"/>
<path d="M0 0 C0 3 0 3 -1.37695312 4.62573242 C-2.31958008 5.4819519 -2.31958008 5.4819519 -3.28125 6.35546875 C-4.29638672 7.28842773 -4.29638672 7.28842773 -5.33203125 8.24023438 C-6.04746094 8.88283203 -6.76289063 9.52542969 -7.5 10.1875 C-8.57314453 11.16879883 -8.57314453 11.16879883 -9.66796875 12.16992188 C-11.43883905 13.78731675 -13.21625018 15.39683903 -15 17 C-15.66 16.67 -16.32 16.34 -17 16 C-5.47835991 4.29384966 -5.47835991 4.29384966 0 0 Z " fill="#2869B9" transform="translate(208,59)"/>
<path d="M0 0 C0.66 0.33 1.32 0.66 2 1 C0.40109514 6.19644079 -1.74138003 11.06612142 -4 16 C-4.66 15.67 -5.32 15.34 -6 15 C-4.36041242 9.76727367 -2.61047965 4.84803364 0 0 Z " fill="#DBDCDC" transform="translate(333,209)"/>
<path d="M0 0 C-1.15585285 3.91211733 -2.35534962 6.8745041 -5 10 C-5 9.34 -5 8.68 -5 8 C-5.99 8.33 -6.98 8.66 -8 9 C-6.53333333 3.5 -6.53333333 3.5 -4 1.125 C-2 0 -2 0 0 0 Z " fill="#206DC8" transform="translate(173,111)"/>
<path d="M0 0 C0.96404029 3.04147923 0.99733086 4.94086712 0.125 8 C-0.05804688 8.66 -0.24109375 9.32 -0.4296875 10 C-0.61789063 10.66 -0.80609375 11.32 -1 12 C-1.12632812 12.721875 -1.25265625 13.44375 -1.3828125 14.1875 C-1.68832031 15.0846875 -1.68832031 15.0846875 -2 16 C-2.99 16.33 -3.98 16.66 -5 17 C-3.83348574 11.07136283 -2.24480642 5.61201606 0 0 Z " fill="#1E5DB0" transform="translate(159,124)"/>
<path d="M0 0 C0.66 0 1.32 0 2 0 C0.43358249 4.30764815 -1.68336156 8.06171464 -4 12 C-4.66 12 -5.32 12 -6 12 C-5.55946315 7.15409462 -3.25494123 3.51858133 0 0 Z " fill="#1B75BF" transform="translate(375,70)"/>
<path d="M0 0 C0.66 0 1.32 0 2 0 C1.52450066 2.62571335 1.04477433 5.2505304 0.5625 7.875 C0.42779297 8.62136719 0.29308594 9.36773437 0.15429688 10.13671875 C-0.88671875 15.7734375 -0.88671875 15.7734375 -2 18 C-2.66 18 -3.32 18 -4 18 C-2.83445193 11.9490696 -1.54656904 5.96533774 0 0 Z " fill="#08284E" transform="translate(446,214)"/>
<path d="M0 0 C0.33 0 0.66 0 1 0 C1 8.58 1 17.16 1 26 C0.01 26 -0.98 26 -2 26 C-2 25.34 -2 24.68 -2 24 C-1.34 24 -0.68 24 0 24 C0 16.08 0 8.16 0 0 Z " fill="#D6DADD" transform="translate(829,180)"/>
<path d="M0 0 C0.66 0.33 1.32 0.66 2 1 C1.01 2.485 1.01 2.485 0 4 C0 4.99 0 5.98 0 7 C-2.5 9.6875 -2.5 9.6875 -5 12 C-5 6.94858535 -3.58789719 3.58789719 0 0 Z " fill="#266FCA" transform="translate(193,77)"/>
<path d="M0 0 C0.33 0 0.66 0 1 0 C1 4.62 1 9.24 1 14 C0.01 14 -0.98 14 -2 14 C-1.85970581 11.8537974 -1.71261836 9.70803782 -1.5625 7.5625 C-1.48128906 6.36753906 -1.40007812 5.17257812 -1.31640625 3.94140625 C-1 1 -1 1 0 0 Z " fill="#1E5EA7" transform="translate(302,307)"/>
<path d="M0 0 C0.66 0 1.32 0 2 0 C0.49087042 4.98012761 -2.55661849 8.24259942 -6 12 C-6.33 11.34 -6.66 10.68 -7 10 C-6.02223933 8.51990357 -5.0427506 7.04094856 -4.0625 5.5625 C-3.51722656 4.73878906 -2.97195312 3.91507812 -2.41015625 3.06640625 C-1 1 -1 1 0 0 Z " fill="#1B5C9F" transform="translate(236,286)"/>
<path d="M0 0 C0.66 0 1.32 0 2 0 C1.43518386 3.95371299 0.28003407 6.71675094 -2 10 C-2.99 10.495 -2.99 10.495 -4 11 C-3.5247412 9.35303396 -3.04468109 7.70745272 -2.5625 6.0625 C-2.29566406 5.14597656 -2.02882813 4.22945312 -1.75390625 3.28515625 C-1 1 -1 1 0 0 Z " fill="#181B24" transform="translate(575,244)"/>
<path d="M0 0 C3.96 1.98 7.92 3.96 12 6 C12 6.66 12 7.32 12 8 C7.76570244 6.68938409 3.92592596 5.05643741 0 3 C0 2.01 0 1.02 0 0 Z " fill="#14589D" transform="translate(414,244)"/>
<path d="M0 0 C3.77727089 1.81309003 7.37269822 3.9073259 11 6 C10.34 7.32 9.68 8.64 9 10 C7.49702124 8.52386015 5.99768715 7.04400843 4.5 5.5625 C3.6646875 4.73878906 2.829375 3.91507812 1.96875 3.06640625 C0 1 0 1 0 0 Z " fill="#1E5EA7" transform="translate(215,119)"/>
<path d="M0 0 C3.63 0.33 7.26 0.66 11 1 C11 1.33 11 1.66 11 2 C8.36 2 5.72 2 3 2 C2.67 3.65 2.34 5.3 2 7 C1.34 7 0.68 7 0 7 C0 4.69 0 2.38 0 0 Z " fill="#CECED0" transform="translate(216,203)"/>
<path d="M0 0 C0 0.99 0 1.98 0 3 C-1.6796875 4.38671875 -1.6796875 4.38671875 -3.875 5.6875 C-4.59429687 6.12449219 -5.31359375 6.56148438 -6.0546875 7.01171875 C-8 8 -8 8 -10 8 C-10 7.34 -10 6.68 -10 6 C-7.8125 4.4921875 -7.8125 4.4921875 -5 2.875 C-4.071875 2.33617188 -3.14375 1.79734375 -2.1875 1.2421875 C-1.465625 0.83226563 -0.74375 0.42234375 0 0 Z " fill="#156FC1" transform="translate(420,114)"/>
<path d="M0 0 C0.99 0.99 1.98 1.98 3 3 C3 5.0625 3 5.0625 2 7 C-0.5625 8.25 -0.5625 8.25 -3 9 C-2.01 6.03 -1.02 3.06 0 0 Z " fill="#232329" transform="translate(602,170)"/>
<path d="M0 0 C-1.62170379 1.00533667 -3.24747237 2.00411907 -4.875 3 C-6.23238281 3.8353125 -6.23238281 3.8353125 -7.6171875 4.6875 C-10 6 -10 6 -12 6 C-12 5.34 -12 4.68 -12 4 C-10.56988027 3.13353333 -9.13059381 2.28218171 -7.6875 1.4375 C-6.48673828 0.72400391 -6.48673828 0.72400391 -5.26171875 -0.00390625 C-3 -1 -3 -1 0 0 Z " fill="#216AB2" transform="translate(198,245)"/>
<path d="M0 0 C1.875 0.25 1.875 0.25 4 1 C5.25 3.0625 5.25 3.0625 6 5 C5.01 5.66 4.02 6.32 3 7 C1.5 5.75 1.5 5.75 0 4 C0 2.68 0 1.36 0 0 Z " fill="#2166C0" transform="translate(402,75)"/>
<path d="M0 0 C3.32643967 2.98232523 5.29152862 5.86370087 7 10 C6.67 10.66 6.34 11.32 6 12 C4.99157547 10.56839732 3.99352109 9.12948547 3 7.6875 C2.1646875 6.48673828 2.1646875 6.48673828 1.3125 5.26171875 C0 3 0 3 0 0 Z " fill="#1362B4" transform="translate(370,287)"/>
<path d="M0 0 C4.10958767 1.45044271 7.43258745 3.51110752 11 6 C10.67 6.66 10.34 7.32 10 8 C8.32819726 7.05065487 6.66266064 6.09026687 5 5.125 C4.071875 4.59132813 3.14375 4.05765625 2.1875 3.5078125 C1.465625 3.01023437 0.74375 2.51265625 0 2 C0 1.34 0 0.68 0 0 Z " fill="#2070BF" transform="translate(187,114)"/>
<path d="M0 0 C4.95 0 9.9 0 15 0 C15 0.33 15 0.66 15 1 C11.12315913 2.19287411 8.08378077 3 4 3 C3.67 2.34 3.34 1.68 3 1 C2.01 0.67 1.02 0.34 0 0 Z " fill="#040716" transform="translate(910,221)"/>
<path d="M0 0 C1.98 0 3.96 0 6 0 C5.42655063 2.86724686 5.1385485 3.8614515 3 6 C0.875 5.625 0.875 5.625 -1 5 C0.65 4.01 2.3 3.02 4 2 C2.68 1.67 1.36 1.34 0 1 C0 0.67 0 0.34 0 0 Z " fill="#081E45" transform="translate(193,243)"/>
<path d="M0 0 C0.33 0 0.66 0 1 0 C1 1.98 1 3.96 1 6 C-0.65 6.33 -2.3 6.66 -4 7 C-2.79618552 4.50638429 -1.54571278 2.31856917 0 0 Z " fill="#DADCDF" transform="translate(394,226)"/>
<path d="M0 0 C-0.66 2.64 -1.32 5.28 -2 8 C-2.66 7.67 -3.32 7.34 -4 7 C-4 5.02 -4 3.04 -4 1 C-2 0 -2 0 0 0 Z " fill="#202027" transform="translate(572,220)"/>
<path d="M0 0 C2.31 1.65 4.62 3.3 7 5 C6.67 6.32 6.34 7.64 6 9 C4.99406757 7.8803014 3.9954151 6.7540588 3 5.625 C2.443125 4.99851562 1.88625 4.37203125 1.3125 3.7265625 C0 2 0 2 0 0 Z " fill="#2374D1" transform="translate(411,86)"/>
<path d="M0 0 C0.99 0 1.98 0 3 0 C2.34 2.31 1.68 4.62 1 7 C0.34 6.67 -0.32 6.34 -1 6 C-1.042721 4.33388095 -1.04063832 2.66617115 -1 1 C-0.67 0.67 -0.34 0.34 0 0 Z " fill="#13131A" transform="translate(658,220)"/>
<path d="M0 0 C0.33 0 0.66 0 1 0 C0.50769231 6.52307692 0.50769231 6.52307692 -2.0625 8.9375 C-2.701875 9.288125 -3.34125 9.63875 -4 10 C-2.8905928 6.51329166 -1.73662334 3.22515763 0 0 Z " fill="#25262E" transform="translate(335,210)"/>
<path d="M0 0 C0 2.31 0 4.62 0 7 C-1.5 5.625 -1.5 5.625 -3 4 C-3 3.34 -3 2.68 -3 2 C-3.66 1.67 -4.32 1.34 -5 1 C-3 0 -3 0 0 0 Z " fill="#C4C4C5" transform="translate(394,203)"/>
<path d="M0 0 C0.66 0 1.32 0 2 0 C2 2.31 2 4.62 2 7 C0.68 5.68 -0.64 4.36 -2 3 C-1.34 2.01 -0.68 1.02 0 0 Z " fill="#D4D6D8" transform="translate(242,203)"/>
<path d="M0 0 C0.33 0 0.66 0 1 0 C1.08131463 1.43655854 1.13933559 2.8744483 1.1875 4.3125 C1.23970703 5.51326172 1.23970703 5.51326172 1.29296875 6.73828125 C0.93801608 9.47851584 0.10633718 10.29171079 -2 12 C-1 3.42857143 -1 3.42857143 0 0 Z " fill="#092151" transform="translate(160,143)"/>
<path d="M0 0 C0.66 0.33 1.32 0.66 2 1 C2.625 4.0625 2.625 4.0625 3 7 C2.01 7.495 2.01 7.495 1 8 C0.34 5.69 -0.32 3.38 -1 1 C-0.67 0.67 -0.34 0.34 0 0 Z " fill="#1463B0" transform="translate(440,132)"/>
</svg>
