<?xml version="1.0" encoding="UTF-8"?>
<svg version="1.1" xmlns="http://www.w3.org/2000/svg" width="1254" height="1254">
<path d="M0 0 C413.82 0 827.64 0 1254 0 C1254 413.82 1254 827.64 1254 1254 C840.18 1254 426.36 1254 0 1254 C0 840.18 0 426.36 0 0 Z " fill="transparent" transform="translate(0,0)"/>
<!-- Half-Circle -->
<path d="M0 0 C1.2060791 0.20367187 2.4121582 0.40734375 3.65478516 0.6171875 C34.65975095 5.99852347 63.50448041 16.84424179 91 32 C92.47919922 32.78697266 92.47919922 32.78697266 93.98828125 33.58984375 C111.37834663 42.86290549 127.12054486 54.59707035 141.65234375 67.87109375 C143.63258804 69.66682277 145.6456535 71.40067606 147.6875 73.125 C153.87714766 78.51883582 159.59669031 84.43523471 165.33398438 90.30126953 C166.69579463 91.68982107 168.07239355 93.06385538 169.453125 94.43359375 C173.73448731 98.90383969 175.30195525 102.84580957 176 109 C176.62390625 109.11472656 177.2478125 109.22945313 177.890625 109.34765625 C180 110 180 110 181.75 112.4375 C183 115 183 115 183 117 C183.66 117.33 184.32 117.66 185 118 C184.67 118.33 184.34 118.66 184 119 C184.28730055 121.33944736 184.61936779 123.6739143 185 126 C186.98 126 188.96 126 191 126 C191.28875 126.969375 191.5775 127.93875 191.875 128.9375 C192.64214682 132.10664203 192.64214682 132.10664203 195 133 C195 133.66 195 134.32 195 135 C195.66 135 196.32 135 197 135 C197.83819158 136.62249941 198.6704116 138.24808497 199.5 139.875 C199.9640625 140.77992188 200.428125 141.68484375 200.90625 142.6171875 C202.193194 145.42088692 202 146.90155437 202 150 C202.804375 150.20625 203.60875 150.4125 204.4375 150.625 C205.283125 151.07875 206.12875 151.5325 207 152 C207.6875 155.0625 207.6875 155.0625 208 158 C208.66 158.33 209.32 158.66 210 159 C210 160.32 210 161.64 210 163 C210.66 163 211.32 163 212 163 C212.65134925 164.56020867 213.29582964 166.12328579 213.9375 167.6875 C214.29714844 168.55761719 214.65679688 169.42773438 215.02734375 170.32421875 C217.43103448 176.93678161 217.43103448 176.93678161 216.0625 180.3125 C215.711875 180.869375 215.36125 181.42625 215 182 C216.65 181.34 218.3 180.68 220 180 C221.01699578 183.01537445 222.01041642 186.03802945 223 189.0625 C223.28617188 189.91005859 223.57234375 190.75761719 223.8671875 191.63085938 C225.48866669 196.6304202 226.34228996 200.74442287 226 206 C226.99 206.33 227.98 206.66 229 207 C231.12310361 212.36363018 231.23332331 217.28357882 231 223 C231.66 223 232.32 223 233 223 C235.15065999 235.5967228 235.15065999 235.5967228 235 240.625 C234.68798114 244.13289692 234.68798114 244.13289692 237 247 C237.41064453 249.4519043 237.41064453 249.4519043 237.6328125 252.32421875 C237.71660156 253.35224609 237.80039062 254.38027344 237.88671875 255.43945312 C238.00466797 257.04723633 238.00466797 257.04723633 238.125 258.6875 C238.21136719 259.77095703 238.29773438 260.85441406 238.38671875 261.97070312 C238.59890657 264.64662735 238.80301158 267.32292099 239 270 C238.01 270.33 237.02 270.66 236 271 C236 272.65 236 274.3 236 276 C221.15 276 206.3 276 191 276 C187.6348228 267.02619414 187.6348228 267.02619414 187.375 263.375 C187.15274278 260.74420024 186.87286433 258.23718599 186.4375 255.625 C186 253 186 253 186 250 C185.24910689 245.02643737 184.2077652 240.25298914 182.375 235.5625 C181 232 181 232 181 229 C180.34 229 179.68 229 179 229 C178.78384033 228.3608667 178.56768066 227.7217334 178.3449707 227.06323242 C177.33995723 224.10264693 176.3262732 221.14509687 175.3125 218.1875 C174.97283203 217.18267578 174.63316406 216.17785156 174.28320312 215.14257812 C172.16845329 208.99596881 169.7806951 203.12053425 166.94213867 197.27075195 C166 195 166 195 166 192 C165.34 192 164.68 192 164 192 C163.37544922 190.22882813 163.37544922 190.22882813 162.73828125 188.421875 C144.99226426 141.27852024 95.23487431 100.71410895 50.86181641 80.00195312 C47.30203375 78.48415161 43.66692762 77.22937458 40 76 C38.30815534 75.32326213 36.6204433 74.63608024 34.9375 73.9375 C7.19163196 62.89217037 -21.17885187 59.762558 -50.8125 59.625 C-51.70712952 59.61705414 -52.60175903 59.60910828 -53.52349854 59.60092163 C-110.44575129 59.21243845 -163.61498662 82.90622366 -206 120 C-207.37865234 121.19302734 -207.37865234 121.19302734 -208.78515625 122.41015625 C-213.96990154 126.96929124 -218.57648695 131.71002563 -223 137 C-224.23169922 138.39992188 -224.23169922 138.39992188 -225.48828125 139.828125 C-243.42231084 160.30388396 -258.98092667 185.19649996 -267.109375 211.26953125 C-267.92344268 213.76529136 -268.8817236 216.09936557 -269.9375 218.5 C-277.28616935 236.49556037 -281.03457506 258.08259061 -281.23828125 277.4609375 C-281.2480751 278.2407045 -281.25786896 279.0204715 -281.26795959 279.8238678 C-281.4548063 298.59167159 -280.82965722 316.55204474 -277 335 C-276.79632813 336.00981934 -276.59265625 337.01963867 -276.3828125 338.06005859 C-271.84590471 359.89392733 -263.4477563 380.35821815 -253 400 C-252.43925781 401.09957031 -251.87851562 402.19914062 -251.30078125 403.33203125 C-235.43755374 433.91219244 -211.12819735 460.33348431 -183 480 C-182.41412109 480.41604492 -181.82824219 480.83208984 -181.22460938 481.26074219 C-160.466222 495.95003875 -137.9253244 506.36228775 -113.7734375 514.08984375 C-111 515 -111 515 -109 516 C-109.63711987 519.83100485 -110.76474207 523.11773151 -112.29296875 526.68359375 C-112.75582275 527.77003174 -113.21867676 528.85646973 -113.69555664 529.97583008 C-114.18789795 531.11818115 -114.68023926 532.26053223 -115.1875 533.4375 C-115.93471313 535.1867981 -115.93471313 535.1867981 -116.69702148 536.97143555 C-118.12679267 540.31626608 -119.56252536 543.65847434 -121 547 C-121.66435432 548.54935407 -122.32846552 550.09881244 -122.9921875 551.6484375 C-123.95191332 553.88779775 -124.91365238 556.12629825 -125.87890625 558.36328125 C-126.95556126 560.8954838 -127.98857119 563.44113171 -129 566 C-175.65141268 560.92919427 -220.21027106 526.10396667 -253 495 C-253.825 494.21753906 -254.65 493.43507813 -255.5 492.62890625 C-260.29201819 487.9616802 -264.58482515 483.0197955 -268.76171875 477.796875 C-270.20115625 475.99820615 -271.66069712 474.21534695 -273.14453125 472.453125 C-289.47580358 453.0321525 -301.52342791 431.51601854 -313 409 C-313.69210571 407.65736084 -313.69210571 407.65736084 -314.39819336 406.28759766 C-316.62374949 401.92457778 -318.62751212 397.698751 -320.0625 393 C-321.17807456 389.38080879 -322.44495443 385.90206667 -323.90234375 382.41015625 C-326.2732587 376.54615537 -327.90490274 370.55098573 -329.5 364.4375 C-329.80260742 363.28564209 -330.10521484 362.13378418 -330.41699219 360.94702148 C-331.01526084 358.65798664 -331.61009895 356.3680519 -332.20117188 354.07714844 C-332.86035931 351.53790686 -333.54105385 349.00659713 -334.234375 346.4765625 C-346.21787274 301.37785382 -341.95396069 248.05037189 -328 204 C-327.71833984 203.10958008 -327.43667969 202.21916016 -327.14648438 201.30175781 C-326.2349181 198.44701331 -325.30935986 195.59736204 -324.375 192.75 C-324.0857666 191.86779785 -323.7965332 190.9855957 -323.49853516 190.07666016 C-321.96343297 185.50838651 -320.21604903 181.29090934 -318 177 C-317.33531853 175.19432686 -316.69060188 173.3812207 -316.0625 171.5625 C-306.17074828 145.52216566 -289.97802781 121.15395701 -272 100 C-271.5059668 99.41573242 -271.01193359 98.83146484 -270.50292969 98.22949219 C-261.31950504 87.39159785 -251.8473207 77.2107074 -241 68 C-240.07960938 67.19046875 -239.15921875 66.3809375 -238.2109375 65.546875 C-196.51821758 29.13858813 -144.420722 7.06270671 -90 -1 C-88.6105055 -1.21634876 -87.22116051 -1.43366212 -85.83203125 -1.65234375 C-57.2269509 -6.00183987 -28.42450936 -4.91634381 0 0 Z " fill="#3eb5e8" transform="translate(618,209)"/>
<!-- Letter W -->
<path d="M0 0 C1.24132187 0.00222061 2.48264374 0.00444122 3.76158142 0.00672913 C4.44447739 0.0065831 5.12737335 0.00643707 5.83096313 0.00628662 C8.09815092 0.00698575 10.36525752 0.01477811 12.63243103 0.02259827 C14.20041865 0.02446245 15.76840685 0.02588635 17.33639526 0.02688599 C21.47103981 0.03071117 25.60564944 0.04054146 29.74028015 0.05158997 C33.95627876 0.06180407 38.172283 0.0663836 42.38829041 0.07142639 C50.66630125 0.08216373 58.94428368 0.09924015 67.22227478 0.12025452 C66.04472853 3.731667 64.86840238 7.0486675 62.99961853 10.35853577 C62.55231384 11.1616217 62.10500916 11.96470764 61.64414978 12.79212952 C61.15430603 13.66353577 60.66446228 14.53494202 60.15977478 15.43275452 C54.8192879 25.06683383 49.73768754 34.81436604 44.72227478 44.62025452 C39.46162598 54.89688091 34.11747967 65.10918844 28.53868103 75.21791077 C24.82477042 81.96400045 21.25603286 88.77826407 17.72227478 95.62025452 C13.10565114 104.55640937 8.37272688 113.4175807 3.53086853 122.23353577 C0.3679201 127.9988042 -2.7316191 133.79246969 -5.77772522 139.62025452 C-12.24186462 151.97518548 -18.93695592 164.20596411 -25.70350647 176.39759827 C-30.11222936 184.34903141 -34.43641757 192.30612962 -38.4344635 200.4723053 C-42.51535852 208.73412729 -46.94076902 216.81867281 -51.32362366 224.92298889 C-51.9401178 226.0657428 -52.55661194 227.2084967 -53.19178772 228.38587952 C-53.73786682 229.39424866 -54.28394592 230.4026178 -54.84657288 231.44154358 C-57.56885053 236.62729322 -60.15845834 241.88172076 -62.77772522 247.12025452 C-81.91772522 247.12025452 -101.05772522 247.12025452 -120.77772522 247.12025452 C-121.76772522 239.20025452 -122.75772522 231.28025452 -123.77772522 223.12025452 C-124.5428182 217.8856408 -125.31052625 212.65716425 -126.13207054 207.43201828 C-126.49297055 205.1354581 -126.8489597 202.8381761 -127.20394897 200.54069519 C-128.08204787 194.86293471 -128.96685616 189.18622695 -129.85340881 183.50978088 C-130.61319792 178.64451061 -131.36944632 173.77871871 -132.12053871 168.91209793 C-132.46934269 166.66148822 -132.8233607 164.41173927 -133.17755127 162.16197205 C-133.39050317 160.78466545 -133.60318961 159.40731778 -133.81556702 158.02992249 C-134.00193222 156.83656281 -134.18829742 155.64320313 -134.38031006 154.41368103 C-134.75880318 151.27706367 -134.85161187 148.27568881 -134.77772522 145.12025452 C-135.43772522 145.12025452 -136.09772522 145.12025452 -136.77772522 145.12025452 C-136.88930969 145.66867004 -137.00089417 146.21708557 -137.11585999 146.78211975 C-137.90340779 149.56424638 -139.06953974 151.94556307 -140.36756897 154.53041077 C-140.89938782 155.59283997 -141.43120667 156.65526917 -141.97914124 157.74989319 C-142.83850281 159.44915955 -142.83850281 159.44915955 -143.71522522 161.18275452 C-144.30424622 162.3536261 -144.89326721 163.52449768 -145.50013733 164.73085022 C-149.65806203 172.97060909 -153.90146399 181.16093748 -158.23085022 189.31166077 C-161.72528114 195.89080197 -165.15088911 202.5060366 -168.58070374 209.11903381 C-170.8309459 213.44459712 -173.11139665 217.7410854 -175.50819397 221.98744202 C-177.18486082 224.97314657 -178.52936709 227.92940808 -179.77772522 231.12025452 C-180.91343806 233.15864477 -182.08203376 235.17895802 -183.27772522 237.18275452 C-185.23240951 240.46678977 -187.06691795 243.69863998 -188.77772522 247.12025452 C-207.58772522 247.12025452 -226.39772522 247.12025452 -245.77772522 247.12025452 C-247.09772522 242.83025452 -248.41772522 238.54025452 -249.77772522 234.12025452 C-250.74767426 231.44251107 -251.74359489 228.77387197 -252.77772522 226.12025452 C-257.04173696 214.86655407 -261.01821542 203.53969042 -264.79164124 192.11219788 C-268.51020954 180.86116811 -272.4493756 169.69138507 -276.40663147 158.52259827 C-276.92625409 157.0551827 -277.44578769 155.58773561 -277.96522522 154.12025452 C-278.21200012 153.42367737 -278.45877502 152.72710022 -278.71302795 152.00941467 C-280.50742843 146.92821699 -282.22417053 141.82432766 -283.89881897 136.70228577 C-284.70111709 134.34531218 -285.59362414 132.05226694 -286.52772522 129.74525452 C-289.11638885 122.23813 -286.98754523 117.56590672 -283.72694397 110.74134827 C-283.10502922 109.40681358 -283.10502922 109.40681358 -282.47055054 108.0453186 C-281.14608265 105.21100115 -279.80559162 102.3845822 -278.46522522 99.55775452 C-277.57426181 97.65261797 -276.6842771 95.74702341 -275.79530334 93.84095764 C-274.94006312 92.01567547 -274.08397155 90.1907919 -273.22694397 88.36634827 C-272.82682602 87.51415207 -272.42670807 86.66195587 -272.01446533 85.78393555 C-271.63429764 84.98282852 -271.25412994 84.1817215 -270.86244202 83.3563385 C-270.53157089 82.65717819 -270.20069977 81.95801788 -269.85980225 81.2376709 C-269.50271683 80.53892349 -269.14563141 79.84017609 -268.77772522 79.12025452 C-268.34520447 78.21959259 -267.91268372 77.31893066 -267.46705627 76.39097595 C-265.77772522 74.12025452 -265.77772522 74.12025452 -263.44284058 73.51898193 C-262.525728 73.53008499 -261.60861542 73.54118805 -260.66371155 73.55262756 C-259.10243279 73.55319405 -259.10243279 73.55319405 -257.50961304 73.55377197 C-256.38766037 73.5795784 -255.2657077 73.60538483 -254.10975647 73.63197327 C-252.95980698 73.639048 -251.80985748 73.64612274 -250.62506104 73.65341187 C-246.94612532 73.6814379 -243.26870222 73.74419604 -239.59022522 73.80775452 C-237.09871071 73.83282656 -234.60717239 73.85564163 -232.11561584 73.87611389 C-226.00246808 73.93129163 -219.89020469 74.01500109 -213.77772522 74.12025452 C-215.42372796 78.63060131 -217.08817346 82.97804047 -219.29335022 87.24916077 C-219.73936584 88.13925842 -220.18538147 89.02935608 -220.64491272 89.94642639 C-221.57155506 91.78007882 -222.50919905 93.60821035 -223.45741272 95.43080139 C-226.63468125 101.83643488 -227.19909824 105.51989667 -225.05116272 112.47181702 C-224.75467834 113.22205139 -224.45819397 113.97228577 -224.15272522 114.74525452 C-221.66331305 121.29249972 -219.49598944 127.93632765 -217.32801819 134.59535217 C-216.07682097 138.39828682 -214.82085187 142.14447516 -213.19178772 145.80384827 C-211.21126644 150.44877248 -210.03204079 155.23547156 -208.74256897 160.10853577 C-208.00660827 163.19648063 -208.00660827 163.19648063 -205.77772522 165.12025452 C-204.66831911 163.26921801 -203.56545941 161.41425735 -202.46522522 159.55775452 C-201.85034241 158.52521545 -201.23545959 157.49267639 -200.60194397 156.42884827 C-198.74626046 153.06318675 -197.26494493 149.66218567 -195.77772522 146.12025452 C-194.6510405 143.77457838 -193.510774 141.44362807 -192.34022522 139.12025452 C-192.01582458 138.47483704 -191.69142395 137.82941956 -191.35719299 137.16444397 C-188.87256024 132.24394679 -186.33583745 127.35326012 -183.77125549 122.47401428 C-176.58046563 108.78451291 -169.65823042 94.96765691 -162.77772522 81.12025452 C-160.59258547 76.72324159 -158.40469452 72.32761284 -156.21522522 67.93275452 C-155.72667053 66.9473468 -155.23811584 65.96193909 -154.73475647 64.94667053 C-154.27327209 64.02039856 -153.81178772 63.09412659 -153.33631897 62.13978577 C-152.93727356 61.33645813 -152.53822815 60.53313049 -152.12709045 59.70545959 C-150.43402533 56.46177104 -148.59307753 53.29712105 -146.77772522 50.12025452 C-127.63772522 50.12025452 -108.49772522 50.12025452 -88.77772522 50.12025452 C-87.56692338 61.01747104 -86.40070363 71.85164734 -85.55897522 82.77259827 C-85.40085968 84.7689764 -85.24274121 86.7653543 -85.08446503 88.7617197 C-84.81316866 92.193545 -84.5456279 95.62566293 -84.27772522 99.05775452 C-82.64918824 120.29319623 -82.64918824 120.29319623 -80.68397522 141.49916077 C-80.60659119 142.27783005 -80.52920715 143.05649933 -80.44947815 143.85876465 C-80.34411294 147.2842277 -80.34411294 147.2842277 -78.77772522 150.12025452 C-78.12924622 148.81544128 -78.12924622 148.81544128 -77.46766663 147.48426819 C-75.81103014 144.15243241 -74.151441 140.82207379 -72.49110413 137.49208069 C-71.78265738 136.07026081 -71.07493697 134.64807872 -70.36805725 133.22547913 C-66.79406278 126.03402959 -63.19150127 118.86263735 -59.4225378 111.77101707 C-53.66358672 100.93243513 -48.14710987 89.97901794 -42.67638969 78.99274826 C-41.07685779 75.7806889 -39.47466678 72.56996754 -37.87185669 69.35954285 C-34.48402338 62.57258759 -31.09940425 55.78403248 -27.71522522 48.99525452 C-23.75885609 41.05888536 -19.8011599 33.12318342 -15.84013557 25.18913651 C-14.26023827 22.02285319 -12.68274728 18.85537865 -11.10534668 15.68785095 C-10.14721659 13.76796235 -9.18897598 11.84812889 -8.23060608 9.92835999 C-7.79172562 9.04543274 -7.35284515 8.16250549 -6.90066528 7.25282288 C-6.50144867 6.45431915 -6.10223206 5.65581543 -5.69091797 4.83311462 C-5.3434851 4.13602827 -4.99605223 3.43894192 -4.63809109 2.72073174 C-3.22832218 0.09823925 -3.18717592 0.13798064 0 0 Z " fill="#3eb5e8" transform="translate(945.7777252197266,528.8797454833984)"/>
<!-- Letter T -->
<path d="M0 0 C1.33432284 -0.00384491 1.33432284 -0.00384491 2.6956017 -0.0077675 C5.68219977 -0.01271667 8.66829454 0.00380633 11.65484619 0.02018738 C13.79333993 0.0210334 15.93183453 0.02055899 18.07032776 0.01885986 C23.88196504 0.01799754 29.69341735 0.03566186 35.50501156 0.05658174 C41.57620753 0.07530889 47.64740753 0.07709585 53.71862793 0.08065796 C65.21810029 0.08999007 76.7174873 0.11461967 88.21692204 0.14470643 C101.30744299 0.17821413 114.39796796 0.19472732 127.4885211 0.20979273 C154.41933567 0.24116817 181.35007444 0.29395136 208.28082275 0.36076355 C206.71404795 4.32431185 205.00139194 8.18111172 203.190979 12.04045105 C202.89031021 12.68216751 202.58964142 13.32388397 202.27986145 13.98504639 C201.30260782 16.06937049 200.32312919 18.15263839 199.34332275 20.23576355 C199.01056335 20.94419403 198.67780396 21.65262451 198.33496094 22.38252258 C193.88089061 31.86498908 189.41163556 41.34026055 184.90582275 50.79826355 C184.44828613 51.76167664 183.99074951 52.72508972 183.51934814 53.71769714 C183.10290039 54.58862 182.68645264 55.45954285 182.25738525 56.3568573 C181.89725342 57.11152283 181.53712158 57.86618835 181.16607666 58.64372253 C180.28082275 60.36076355 180.28082275 60.36076355 179.28082275 61.36076355 C176.38939124 61.4560026 173.52190211 61.48629382 170.63018799 61.47428894 C169.26934586 61.47450798 169.26934586 61.47450798 167.88101196 61.47473145 C164.86712291 61.47403196 161.85329483 61.46623789 158.8394165 61.4584198 C156.75576308 61.45655575 154.67210922 61.45513178 152.5884552 61.45413208 C147.09258829 61.45030589 141.59674762 61.44047475 136.10089111 61.4294281 C130.49746048 61.41921615 124.89402563 61.41463492 119.29058838 61.40959167 C108.28732161 61.39885257 97.28407436 61.38177494 86.28082275 61.36076355 C85.98481674 62.27274002 85.68881073 63.18471649 85.38383484 64.12432861 C84.55748762 66.54897931 83.70156685 68.82487833 82.63262939 71.14372253 C82.3221315 71.82140182 82.01163361 72.49908112 81.69172668 73.19729614 C81.36147995 73.90995132 81.03123322 74.62260651 80.690979 75.3568573 C80.1731913 76.48451256 80.1731913 76.48451256 79.64494324 77.63494873 C78.54732166 80.02407575 77.44552403 82.41124635 76.34332275 84.79826355 C75.24546824 87.18205893 74.1485094 89.56626199 73.05241394 91.9508667 C72.37242499 93.42955556 71.6913114 94.90772796 71.00886536 96.38528442 C69.02925897 100.68236095 67.14099205 105.01024147 65.28082275 109.36076355 C64.00075142 112.24160373 62.70143538 115.11365273 61.4019165 117.98576355 C60.64247814 119.66810065 59.88312252 121.3504751 59.12384033 123.03288269 C58.73064606 123.90365448 58.33745178 124.77442627 57.93234253 125.67158508 C52.00908822 138.79220163 46.11784191 151.92106058 40.42193604 165.14225769 C37.70708341 171.42893907 34.85250867 177.63539496 31.925354 183.8256073 C30.14837018 187.64548939 28.45568416 191.49537801 26.78082275 195.36076355 C24.33723532 200.99322246 21.80825727 206.57609427 19.19805908 212.13395691 C16.26346649 218.38570316 13.35945242 224.65130147 10.46832275 230.92326355 C9.74757568 232.47690613 9.74757568 232.47690613 9.01226807 234.06193542 C8.5581958 235.04871277 8.10412354 236.03549011 7.6362915 237.0521698 C7.23047852 237.93074646 6.82466553 238.80932312 6.40655518 239.71452332 C5.20687833 242.53458345 4.2499442 245.45339922 3.28082275 248.36076355 C-17.83917725 248.36076355 -38.95917725 248.36076355 -60.71917725 248.36076355 C-59.93426546 244.43620464 -59.10891628 241.60009857 -57.5668335 237.9974823 C-57.11840088 236.94480164 -56.66996826 235.89212097 -56.20794678 234.80754089 C-55.71665283 233.67010437 -55.22535889 232.53266785 -54.71917725 231.36076355 C-54.20339111 230.16016296 -53.68760498 228.95956238 -53.15618896 227.72257996 C-51.77939998 224.52322278 -50.39497556 221.32723072 -49.00750732 218.13249207 C-48.15325633 216.16538612 -47.30037577 214.19769028 -46.44769287 212.22990417 C-43.85629253 206.2536748 -41.25299887 200.28338025 -38.59783936 194.33512878 C-36.85813078 190.4259809 -35.15692046 186.49985264 -33.45159912 182.5756073 C-31.77714389 178.73623855 -30.06232007 174.91841393 -28.3168335 171.11076355 C-25.62359205 165.2012026 -23.10262437 159.22559232 -20.59417725 153.23576355 C-17.02025438 144.7444644 -13.38978496 136.28325355 -9.65667725 127.86076355 C-4.4435133 116.08598474 0.64360101 104.25822283 5.71832275 92.42326355 C6.11326935 91.50335632 6.50821594 90.5834491 6.91513062 89.63566589 C8.05796896 86.97301882 9.19899787 84.30960401 10.3394165 81.6459198 C10.67758392 80.8581868 11.01575134 80.0704538 11.36416626 79.2588501 C13.75880776 73.65605389 16.01627244 68.02213934 18.28082275 62.36076355 C-17.68917725 62.36076355 -53.65917725 62.36076355 -90.71917725 62.36076355 C-89.58942316 58.97150129 -88.93240781 58.52276807 -86.105896 56.54045105 C-84.98453247 55.74417297 -84.98453247 55.74417297 -83.84051514 54.93180847 C-83.03734863 54.37211365 -82.23418213 53.81241882 -81.40667725 53.23576355 C-79.7524139 52.06345736 -78.09876892 50.8902781 -76.44573975 49.7162323 C-75.6352417 49.14308289 -74.82474365 48.56993347 -73.98968506 47.97941589 C-71.04905295 45.88302978 -68.16257847 43.72604244 -65.28167725 41.54826355 C-59.80805234 37.41877573 -54.27706774 33.37594342 -48.71917725 29.36076355 C-47.75648926 28.6649115 -47.75648926 28.6649115 -46.77435303 27.95500183 C-39.75221109 22.87939959 -32.72648387 17.80876812 -25.699646 12.7396698 C-24.88632812 12.15274353 -24.07301025 11.56581726 -23.23504639 10.96110535 C-21.67587149 9.83594564 -20.11647447 8.71109365 -18.55682373 7.58659363 C-17.49636841 6.82125305 -17.49636841 6.82125305 -16.41448975 6.04045105 C-15.79590088 5.59427429 -15.17731201 5.14809753 -14.53997803 4.68840027 C-12.68747198 3.4083389 -12.68747198 3.4083389 -11.15032578 1.80033398 C-7.56515774 -0.32257288 -4.04802915 -0.04248164 0 0 Z " fill="#3eb5e8" transform="translate(585.7191772460938,527.6392364501953)"/>
<!-- Clock Hands -->
<path d="M0 0 C3.27365512 2.09849687 6.24483773 4.48967546 8 8 C8.08754431 9.58098347 8.1115198 11.16567986 8.10438538 12.74906921 C8.10172668 14.25256676 8.10172668 14.25256676 8.09901428 15.78643799 C8.08879494 17.44228912 8.08879494 17.44228912 8.07836914 19.1315918 C8.07225177 21.5353745 8.06632515 23.9391577 8.06056213 26.34294128 C8.05588991 27.62270529 8.05121769 28.90246929 8.04640388 30.22101402 C8.03510338 34.21791965 8.03495648 38.21471558 8.04063416 42.21162415 C8.04155424 42.88622214 8.04247432 43.56082014 8.04342228 44.25586051 C8.04639394 46.33398535 8.049559 48.41210984 8.05273438 50.49023438 C8.06552278 59.09775324 8.0675713 67.7048172 8.02416992 76.31225586 C7.9926311 82.58798414 7.98940493 88.86301876 8.01892942 95.13876659 C8.03345798 98.45893417 8.02939329 101.7774023 7.99952888 105.09750938 C7.96813041 108.80659812 7.98629343 112.51240158 8.01586914 116.22143555 C7.99488663 117.31521515 7.97390411 118.40899475 7.95228577 119.53591919 C8.01582001 125.27070132 8.01582001 125.27070132 10.74120903 130.13462257 C12.81833878 131.98562876 12.81833878 131.98562876 14.9916296 133.47390461 C19.45501287 136.86548449 21.62719949 141.49926735 22.44140625 146.9609375 C22.77404702 155.48083346 20.47652295 160.42280018 15.75 167.25 C11.42349316 171.57650684 5.58646474 174.81934844 -0.63671875 175.1328125 C-2.14685547 175.12894531 -2.14685547 175.12894531 -3.6875 175.125 C-4.76128906 175.12628906 -5.83507812 175.12757813 -6.94140625 175.12890625 C-9.52027568 175.02021827 -11.63934418 174.66739375 -14.125 174.0625 C-19.23078411 173.98014864 -21.28589147 175.79238071 -25.21972656 178.86914062 C-27.74114298 180.80160659 -30.29140087 182.57659984 -32.9453125 184.3203125 C-38.82256385 188.20974965 -44.6688627 192.14314503 -50.5078125 196.08984375 C-52.41926144 197.38087328 -54.33071992 198.6718887 -56.2421875 199.96289062 C-59.2073955 201.96601486 -62.17234775 203.96951423 -65.13671875 205.97387695 C-68.0305274 207.93027128 -70.92533607 209.88517802 -73.8203125 211.83984375 C-74.71291779 212.44392563 -75.60552307 213.04800751 -76.525177 213.6703949 C-77.34718597 214.22509964 -78.16919495 214.77980438 -79.01611328 215.35131836 C-79.73936798 215.84014999 -80.46262268 216.32898163 -81.20779419 216.83262634 C-84.94491252 219.26684091 -87.52022684 219.37331443 -92 219 C-96.0259839 216.87306511 -98.31214609 215.21578122 -100 211 C-100.3359375 208.81640625 -100.3359375 208.81640625 -100.375 206.5625 C-100.40335937 205.82128906 -100.43171875 205.08007812 -100.4609375 204.31640625 C-99.49209733 199.44757386 -95.82317408 196.73143237 -91.9284668 194.02075195 C-90.27422215 192.91829022 -88.61408725 191.82463299 -86.94921875 190.73828125 C-86.05821976 190.14758347 -85.16722076 189.55688568 -84.2492218 188.94828796 C-81.40029848 187.06201993 -78.54412569 185.18707766 -75.6875 183.3125 C-73.80874733 182.07171646 -71.93048714 180.83018687 -70.05273438 179.58789062 C-66.40153932 177.17344006 -62.74707529 174.76406542 -59.09008789 172.35839844 C-55.8798477 170.24447099 -52.67753138 168.1197319 -49.48608398 165.97753906 C-48.80234207 165.51880905 -48.11860016 165.06007904 -47.41413879 164.58744812 C-46.17348696 163.75357603 -44.93409632 162.91782255 -43.69633484 162.07966614 C-40.44739835 159.89656325 -37.14947221 157.94893924 -33.6875 156.125 C-30.87908804 154.29114891 -30.13074881 153.43703999 -29.15625 150.1796875 C-28.84526251 148.07015568 -28.58037603 145.95328266 -28.36328125 143.83203125 C-27.8644315 139.9431488 -26.58505574 137.92519465 -24 135 C-23.35645884 134.54380783 -22.71291767 134.08761566 -22.04987526 133.61759949 C-18.80854042 131.26522787 -16.40408911 129.40657905 -15.2725029 125.46768188 C-15.01862833 122.38565775 -15.01311565 119.39233839 -15.09521484 116.30078125 C-15.09393082 115.14057465 -15.09264679 113.98036804 -15.09132385 112.78500366 C-15.09386539 110.27336657 -15.11488798 107.7616946 -15.15235519 105.25033569 C-15.21151462 101.27370686 -15.22342478 97.29845547 -15.22109985 93.3215332 C-15.22455456 85.59748379 -15.2867662 77.87446573 -15.35616302 70.15077209 C-15.44226441 60.31987038 -15.50467645 50.4891816 -15.50820124 40.65788174 C-15.51217107 36.0742421 -15.56499618 31.49259047 -15.62704468 26.90942383 C-15.63499585 24.50602699 -15.64139602 22.10262434 -15.64599609 19.69921875 C-15.68318001 18.07033218 -15.68318001 18.07033218 -15.72111511 16.40853882 C-15.68965423 10.18400568 -14.92993206 6.70181135 -10.4851017 2.21760559 C-7.09511011 -0.56178165 -4.29298909 -0.49263809 0 0 Z " fill="#192233" transform="translate(555,324)"/>
<!-- Letetr T -->
<path d="M0 0 C1.33432284 -0.00384491 1.33432284 -0.00384491 2.6956017 -0.0077675 C5.68219977 -0.01271667 8.66829454 0.00380633 11.65484619 0.02018738 C13.79333993 0.0210334 15.93183453 0.02055899 18.07032776 0.01885986 C23.88196504 0.01799754 29.69341735 0.03566186 35.50501156 0.05658174 C41.57620753 0.07530889 47.64740753 0.07709585 53.71862793 0.08065796 C65.21810029 0.08999007 76.7174873 0.11461967 88.21692204 0.14470643 C101.30744299 0.17821413 114.39796796 0.19472732 127.4885211 0.20979273 C154.41933567 0.24116817 181.35007444 0.29395136 208.28082275 0.36076355 C206.71404795 4.32431185 205.00139194 8.18111172 203.190979 12.04045105 C202.89031021 12.68216751 202.58964142 13.32388397 202.27986145 13.98504639 C201.30260782 16.06937049 200.32312919 18.15263839 199.34332275 20.23576355 C199.01056335 20.94419403 198.67780396 21.65262451 198.33496094 22.38252258 C193.88089061 31.86498908 189.41163556 41.34026055 184.90582275 50.79826355 C184.44828613 51.76167664 183.99074951 52.72508972 183.51934814 53.71769714 C183.10290039 54.58862 182.68645264 55.45954285 182.25738525 56.3568573 C181.89725342 57.11152283 181.53712158 57.86618835 181.16607666 58.64372253 C180.28082275 60.36076355 180.28082275 60.36076355 179.28082275 61.36076355 C176.38939124 61.4560026 173.52190211 61.48629382 170.63018799 61.47428894 C169.26934586 61.47450798 169.26934586 61.47450798 167.88101196 61.47473145 C164.86712291 61.47403196 161.85329483 61.46623789 158.8394165 61.4584198 C156.75576308 61.45655575 154.67210922 61.45513178 152.5884552 61.45413208 C147.09258829 61.45030589 141.59674762 61.44047475 136.10089111 61.4294281 C130.49746048 61.41921615 124.89402563 61.41463492 119.29058838 61.40959167 C108.28732161 61.39885257 97.28407436 61.38177494 86.28082275 61.36076355 C85.98481674 62.27274002 85.68881073 63.18471649 85.38383484 64.12432861 C84.55748762 66.54897931 83.70156685 68.82487833 82.63262939 71.14372253 C82.3221315 71.82140182 82.01163361 72.49908112 81.69172668 73.19729614 C81.36147995 73.90995132 81.03123322 74.62260651 80.690979 75.3568573 C80.1731913 76.48451256 80.1731913 76.48451256 79.64494324 77.63494873 C78.54732166 80.02407575 77.44552403 82.41124635 76.34332275 84.79826355 C75.24546824 87.18205893 74.1485094 89.56626199 73.05241394 91.9508667 C72.37242499 93.42955556 71.6913114 94.90772796 71.00886536 96.38528442 C69.02925897 100.68236095 67.14099205 105.01024147 65.28082275 109.36076355 C64.00075142 112.24160373 62.70143538 115.11365273 61.4019165 117.98576355 C60.64247814 119.66810065 59.88312252 121.3504751 59.12384033 123.03288269 C58.73064606 123.90365448 58.33745178 124.77442627 57.93234253 125.67158508 C52.00908822 138.79220163 46.11784191 151.92106058 40.42193604 165.14225769 C37.70708341 171.42893907 34.85250867 177.63539496 31.925354 183.8256073 C30.14837018 187.64548939 28.45568416 191.49537801 26.78082275 195.36076355 C24.33723532 200.99322246 21.80825727 206.57609427 19.19805908 212.13395691 C16.26346649 218.38570316 13.35945242 224.65130147 10.46832275 230.92326355 C9.74757568 232.47690613 9.74757568 232.47690613 9.01226807 234.06193542 C8.5581958 235.04871277 8.10412354 236.03549011 7.6362915 237.0521698 C7.23047852 237.93074646 6.82466553 238.80932312 6.40655518 239.71452332 C5.20687833 242.53458345 4.2499442 245.45339922 3.28082275 248.36076355 C-17.83917725 248.36076355 -38.95917725 248.36076355 -60.71917725 248.36076355 C-59.93426546 244.43620464 -59.10891628 241.60009857 -57.5668335 237.9974823 C-57.11840088 236.94480164 -56.66996826 235.89212097 -56.20794678 234.80754089 C-55.71665283 233.67010437 -55.22535889 232.53266785 -54.71917725 231.36076355 C-54.20339111 230.16016296 -53.68760498 228.95956238 -53.15618896 227.72257996 C-51.77939998 224.52322278 -50.39497556 221.32723072 -49.00750732 218.13249207 C-48.15325633 216.16538612 -47.30037577 214.19769028 -46.44769287 212.22990417 C-43.85629253 206.2536748 -41.25299887 200.28338025 -38.59783936 194.33512878 C-36.85813078 190.4259809 -35.15692046 186.49985264 -33.45159912 182.5756073 C-31.77714389 178.73623855 -30.06232007 174.91841393 -28.3168335 171.11076355 C-25.62359205 165.2012026 -23.10262437 159.22559232 -20.59417725 153.23576355 C-17.02025438 144.7444644 -13.38978496 136.28325355 -9.65667725 127.86076355 C-4.4435133 116.08598474 0.64360101 104.25822283 5.71832275 92.42326355 C6.11326935 91.50335632 6.50821594 90.5834491 6.91513062 89.63566589 C8.05796896 86.97301882 9.19899787 84.30960401 10.3394165 81.6459198 C10.67758392 80.8581868 11.01575134 80.0704538 11.36416626 79.2588501 C13.75880776 73.65605389 16.01627244 68.02213934 18.28082275 62.36076355 C-17.68917725 62.36076355 -53.65917725 62.36076355 -90.71917725 62.36076355 C-89.58942316 58.97150129 -88.93240781 58.52276807 -86.105896 56.54045105 C-84.98453247 55.74417297 -84.98453247 55.74417297 -83.84051514 54.93180847 C-83.03734863 54.37211365 -82.23418213 53.81241882 -81.40667725 53.23576355 C-79.7524139 52.06345736 -78.09876892 50.8902781 -76.44573975 49.7162323 C-75.6352417 49.14308289 -74.82474365 48.56993347 -73.98968506 47.97941589 C-71.04905295 45.88302978 -68.16257847 43.72604244 -65.28167725 41.54826355 C-59.80805234 37.41877573 -54.27706774 33.37594342 -48.71917725 29.36076355 C-47.75648926 28.6649115 -47.75648926 28.6649115 -46.77435303 27.95500183 C-39.75221109 22.87939959 -32.72648387 17.80876812 -25.699646 12.7396698 C-24.88632812 12.15274353 -24.07301025 11.56581726 -23.23504639 10.96110535 C-21.67587149 9.83594564 -20.11647447 8.71109365 -18.55682373 7.58659363 C-17.49636841 6.82125305 -17.49636841 6.82125305 -16.41448975 6.04045105 C-15.79590088 5.59427429 -15.17731201 5.14809753 -14.53997803 4.68840027 C-12.68747198 3.4083389 -12.68747198 3.4083389 -11.15032578 1.80033398 C-7.56515774 -0.32257288 -4.04802915 -0.04248164 0 0 Z " fill="#192233" transform="translate(585.7191772460938,527.6392364501953)"></path>
<!-- Three Lines -->
<path d="M0 0 C0.8731485 -0.0049649 1.746297 -0.00992981 2.64590454 -0.01504517 C5.54796117 -0.02970652 8.44996313 -0.03647539 11.35205078 -0.04199219 C13.36125694 -0.0477404 15.37046308 -0.05349817 17.37966919 -0.05926514 C21.59816749 -0.06978647 25.81664667 -0.0756217 30.03515625 -0.07910156 C35.44826513 -0.08458844 40.86112274 -0.10861588 46.27415276 -0.13707352 C50.4262059 -0.15567106 54.57819818 -0.16090396 58.73028946 -0.16243744 C60.72624205 -0.16547107 62.7221934 -0.17352336 64.71810532 -0.18662262 C67.50757867 -0.20362287 70.29643378 -0.20181768 73.0859375 -0.1953125 C73.91514709 -0.20452728 74.74435669 -0.21374207 75.59869385 -0.22323608 C81.22902789 -0.18197537 81.22902789 -0.18197537 83.40803719 1.5044136 C84.67236328 3.16113281 84.67236328 3.16113281 84.67236328 6.03613281 C83.44606215 9.86832386 81.70503561 11.57226619 78.67236328 14.16113281 C75.42965225 15.78248833 71.87010977 15.30836111 68.30712891 15.30639648 C67.44198166 15.3097551 66.57683441 15.31311371 65.68547058 15.3165741 C62.81650368 15.32609822 59.94759502 15.32802783 57.07861328 15.32910156 C55.09086075 15.33231271 53.10310847 15.33567667 51.11535645 15.33918762 C46.94571382 15.34518226 42.77609194 15.34702714 38.60644531 15.34643555 C33.25273526 15.34633381 27.89915748 15.35999646 22.54547882 15.37720776 C18.43979272 15.38830234 14.33413889 15.39035555 10.22843933 15.38982582 C8.25399824 15.39100938 6.27955641 15.39545206 4.30513 15.40315819 C1.54919034 15.41290858 -1.20645843 15.41009995 -3.96240234 15.40405273 C-4.78428543 15.40967224 -5.60616852 15.41529175 -6.45295715 15.42108154 C-12.09932017 15.38944936 -12.09932017 15.38944936 -14.32763672 13.16113281 C-14.76513672 9.84863281 -14.76513672 9.84863281 -14.32763672 6.16113281 C-11.89013672 3.28613281 -11.89013672 3.28613281 -9.32763672 1.16113281 C-7.26351277 -0.90299113 -2.8422138 0.00381298 0 0 Z " fill="#1F2530" transform="translate(936.32763671875,422.8388671875)"></path>
<path d="M0 0 C1.26626976 0.00067978 1.26626976 0.00067978 2.55812073 0.00137329 C3.44262909 -0.00198532 4.32713745 -0.00534393 5.2384491 -0.00880432 C8.17778406 -0.01834447 11.11706224 -0.02025895 14.05641174 -0.02133179 C16.090434 -0.02454221 18.12445602 -0.02790611 20.15847778 -0.03141785 C24.42825354 -0.03741677 28.69800902 -0.03925696 32.9677887 -0.03866577 C38.45044162 -0.0385641 43.93296519 -0.05221831 49.41558743 -0.06943798 C53.61821087 -0.08053331 57.82080281 -0.08258574 62.02343941 -0.08205605 C64.04532886 -0.08323982 66.06721904 -0.08768366 68.08909416 -0.09538841 C70.9121963 -0.10513882 73.73501444 -0.10232997 76.55812073 -0.09628296 C77.40027634 -0.10190247 78.24243195 -0.10752197 79.11010742 -0.11331177 C84.89450267 -0.08167836 84.89450267 -0.08167836 87.12281799 2.14663696 C87.68531799 4.89663696 87.68531799 4.89663696 87.12281799 8.14663696 C84.70732892 11.20156628 81.85712407 13.69003336 78.04720116 14.69309998 C75.71076085 14.89613312 73.44282839 14.9126611 71.09815979 14.85952759 C70.22252884 14.86361633 69.34689789 14.86770508 68.44473267 14.87191772 C65.56963229 14.87790233 62.69686169 14.84109335 59.82203674 14.80288696 C57.81901619 14.7967678 55.81598711 14.79301859 53.81295776 14.79153442 C49.62579015 14.78234925 45.43939637 14.75357227 41.25245667 14.70913696 C35.8775341 14.65239016 30.50321782 14.6306937 25.1280241 14.62177277 C20.99741525 14.61347551 16.86692957 14.59385301 12.73638344 14.57002258 C10.75358377 14.55860899 8.77077226 14.54909429 6.78795433 14.54148865 C4.02525684 14.52779185 1.26304634 14.50054695 -1.49949646 14.46890259 C-2.32287506 14.46666687 -3.14625366 14.46443115 -3.99458313 14.46212769 C-9.64778352 14.37603545 -9.64778352 14.37603545 -11.87718201 12.14663696 C-12.31468201 9.33413696 -12.31468201 9.33413696 -11.87718201 6.14663696 C-9.43968201 3.33413696 -9.43968201 3.33413696 -6.87718201 1.14663696 C-5.03720506 -0.69333999 -2.44942205 0.01367067 0 0 Z " fill="#202633" transform="translate(897.8771820068359,464.8533630371094)"></path>
<path d="M0 0 C0.86412506 -0.00569504 1.72825012 -0.01139008 2.61856079 -0.01725769 C5.46180078 -0.0283315 8.30271811 0.00364477 11.14575195 0.03735352 C13.1253889 0.04093154 15.10503099 0.04228785 17.08467102 0.04151917 C21.22653238 0.04620469 25.36761247 0.07100612 29.50927734 0.11132812 C34.82257601 0.16239793 40.13501958 0.17376788 45.44853497 0.17149258 C49.53288459 0.17230743 53.61704667 0.18874512 57.701334 0.2104969 C59.66097406 0.22005186 61.62063537 0.22595795 63.58029747 0.22817802 C66.31431861 0.23466912 69.04742488 0.2608968 71.78125 0.29296875 C72.59325363 0.29160919 73.40525726 0.29024963 74.24186707 0.28884888 C79.694743 0.3825854 79.694743 0.3825854 82.19514465 2.1075592 C83.68843099 4.52511895 83.66232563 5.93400521 83.1965332 8.72875977 C80.9527176 12.17461945 79.05444581 14.31817814 75.1965332 15.72875977 C72.36552677 15.91979132 69.6340643 16.00197266 66.80371094 15.98754883 C65.53722214 15.99280579 65.53722214 15.99280579 64.24514771 15.99816895 C61.45672362 16.00696529 58.66855358 16.00114503 55.88012695 15.99438477 C53.94246878 15.99573189 52.00481094 15.99767282 50.06715393 16.00018311 C46.00778991 16.00313142 41.94851394 15.99884563 37.88916016 15.98950195 C32.68131991 15.9781 27.47368564 15.98467346 22.26585293 15.99664688 C18.26563458 16.00386687 14.26546524 16.00157704 10.26524544 15.9963913 C8.34466592 15.99505558 6.42408197 15.9966998 4.50350761 16.0013504 C1.82220509 16.00641871 -0.85876161 15.99870146 -3.54003906 15.98754883 C-4.33648331 15.99159729 -5.13292755 15.99564575 -5.95350647 15.99981689 C-9.77091978 15.97034043 -11.54942401 15.89812163 -14.8034668 13.72875977 C-15.3759007 10.42136388 -15.61561807 7.99779788 -13.74553204 5.07566929 C-9.44696129 0.44956415 -6.17069747 -0.12907909 0 0 Z " fill="#232A39" transform="translate(866.803466796875,505.271240234375)"></path>
</svg>